<?xml version="1.0" encoding="UTF-8" standalone="no"?>
<!-- Created with Inkscape (http://www.inkscape.org/) -->

<svg
   version="1.1"
   id="svg2"
   xml:space="preserve"
   width="154.96001"
   height="154.96001"
   viewBox="0 0 154.96001 154.96001"
   sodipodi:docname="uom.logo.eps"
   xmlns:inkscape="http://www.inkscape.org/namespaces/inkscape"
   xmlns:sodipodi="http://sodipodi.sourceforge.net/DTD/sodipodi-0.dtd"
   xmlns="http://www.w3.org/2000/svg"
   xmlns:svg="http://www.w3.org/2000/svg"><defs
     id="defs6" /><sodipodi:namedview
     id="namedview4"
     pagecolor="#ffffff"
     bordercolor="#666666"
     borderopacity="1.0"
     inkscape:pageshadow="2"
     inkscape:pageopacity="0.0"
     inkscape:pagecheckerboard="0" /><g
     id="g8"
     inkscape:groupmode="layer"
     inkscape:label="ink_ext_XXXXXX"
     transform="matrix(1.3333333,0,0,-1.3333333,0,154.96)"><g
       id="g10"
       transform="scale(0.1)"><path
         d="M 1162.2,0 H 0 V 1162.2 H 1162.2 V 0"
         style="fill:#224984;fill-opacity:1;fill-rule:nonzero;stroke:none"
         id="path12" /><path
         d="m 129.508,389.672 c -0.106,-0.328 -1.949,-8.086 -1.949,-9.094 0,-1.023 0.574,-1.387 1.062,-1.387 0.871,0 1.234,0.711 1.434,1.25 -0.008,-0.019 1.355,2.473 1.355,2.473 1.176,1.758 2.973,2.293 8.016,2.387 0,0 9.211,0.125 11.711,0.16 0,-1.246 0,-34.746 0,-34.746 0,-7.832 0,-14.598 -0.403,-18.063 -0.347,-2.492 -0.742,-3.808 -1.929,-4.054 -0.02,-0.004 -2.379,-0.321 -2.379,-0.321 -0.895,0 -1.293,-0.57 -1.293,-1.14 0,-1.297 1.476,-1.297 1.969,-1.297 l 6.836,0.203 1.363,0.051 0.972,-0.035 9.313,-0.219 c 1.785,0 1.973,0.906 1.973,1.297 0,0.551 -0.407,1.14 -1.297,1.14 l -3.672,0.325 c -1.988,0.277 -2.473,1.574 -2.715,4.039 -0.43,3.48 -0.43,10.242 -0.43,18.074 0,0 0,33.496 0,34.746 1.145,-0.02 9.891,-0.16 9.891,-0.16 8.051,-0.172 9.402,-2.145 9.66,-4.055 l 0.078,-0.891 c 0.067,-0.796 0.168,-2.003 1.313,-2.003 0.203,0 1.23,0.082 1.23,1.718 l 0.082,2.676 0.168,6.52 c 0,0.496 0,1.66 -1.066,1.66 l -0.992,-0.16 c -1.188,-0.239 -3.395,-0.688 -7.286,-0.688 h -31.367 l -6.527,0.414 c -0.02,0 -2.703,0.696 -2.703,0.696 l -1.055,0.312 c -0.754,0 -1.062,-0.93 -1.363,-1.828"
         style="fill:#ffffff;fill-opacity:1;fill-rule:nonzero;stroke:none"
         id="path14" /><path
         d="m 242.113,390.133 -1.347,-0.055 -1.075,0.043 -8.378,0.211 c -0.489,0 -1.977,0 -1.977,-1.309 0,-0.656 0.555,-1.136 1.312,-1.136 l 2.707,-0.219 c 2.274,-0.5 2.938,-1.398 3.098,-4.199 l 0.16,-18.028 v -1.761 l -35.32,0.148 0.129,1.613 0.172,18.024 c 0.16,2.84 0.789,3.855 2.586,4.191 v 0 l 1.968,0.231 c 0.758,0 1.313,0.48 1.313,1.136 0,0.872 -0.664,1.309 -1.981,1.309 l -6.824,-0.199 -1.375,-0.055 -1.097,0.043 -8.36,0.211 c -1.308,0 -1.969,-0.437 -1.969,-1.309 0,-0.648 0.559,-1.136 1.305,-1.136 l 2.692,-0.219 c 2.293,-0.5 2.953,-1.398 3.101,-4.199 0,-0.008 0.176,-18.028 0.176,-18.028 v -14.726 c 0,-7.832 0,-14.594 -0.406,-18.063 -0.352,-2.492 -0.743,-3.808 -1.918,-4.054 -0.02,-0.004 -2.387,-0.321 -2.387,-0.321 -0.902,0 -1.309,-0.57 -1.309,-1.14 0,-1.297 1.489,-1.297 1.981,-1.297 l 6.816,0.199 1.375,0.055 0.981,-0.039 9.308,-0.215 c 1.77,0 1.965,0.906 1.965,1.297 0,0.57 -0.402,1.14 -1.289,1.14 l -3.691,0.325 c -1.969,0.277 -2.457,1.574 -2.711,4.043 -0.422,3.476 -0.422,10.238 -0.422,18.07 v 8.793 l 35.344,-0.141 -0.153,-8.652 c 0,-7.832 0,-14.594 -0.422,-18.059 -0.32,-2.437 -0.718,-3.812 -1.91,-4.058 -0.019,-0.004 -2.375,-0.321 -2.375,-0.321 -0.906,0 -1.316,-0.589 -1.316,-1.14 0,-1.297 1.488,-1.297 1.976,-1.297 l 6.848,0.203 1.352,0.051 0.953,-0.035 9.332,-0.219 c 1.797,0 1.988,0.906 1.988,1.297 0,0.551 -0.406,1.14 -1.305,1.14 l -3.675,0.325 c -1.989,0.277 -2.477,1.574 -2.731,4.043 -0.402,3.472 -0.402,10.238 -0.402,18.07 v 14.726 l 0.16,18.028 c 0.176,2.871 0.777,3.847 2.578,4.187 v 0 l 1.961,0.231 c 0.766,0 1.32,0.48 1.32,1.136 0,1.309 -1.492,1.309 -1.976,1.309 l -6.856,-0.199"
         style="fill:#ffffff;fill-opacity:1;fill-rule:nonzero;stroke:none"
         id="path16" /><path
         d="m 295.543,390.723 -0.398,-0.157 -3.477,-0.41 c 0.012,0 -19.113,-0.078 -19.113,-0.078 l -1.129,0.043 -8.324,0.211 c -0.489,0 -1.977,0 -1.977,-1.309 0,-0.656 0.547,-1.136 1.297,-1.136 l 2.695,-0.219 c 2.285,-0.5 2.953,-1.398 3.113,-4.199 l 0.172,-18.028 v -14.726 c 0,-7.832 0,-14.594 -0.414,-18.059 -0.347,-2.496 -0.742,-3.812 -1.929,-4.058 -0.02,-0.004 -2.379,-0.321 -2.379,-0.321 -0.891,0 -1.293,-0.57 -1.293,-1.14 0,-1.297 1.468,-1.297 1.957,-1.297 l 6.804,0.199 1.407,0.055 3.179,-0.11 17.481,-0.386 c 3.297,0 4.406,0 5.121,2.632 0.418,1.774 1.113,7.52 1.113,8.278 0,0.613 0,1.89 -1.156,1.89 -1.063,0 -1.254,-1.16 -1.355,-1.785 -0.555,-3.222 -1.477,-4.726 -3.395,-5.543 -2.055,-0.871 -5.641,-0.871 -7.781,-0.871 -8.098,0 -8.844,1.024 -9.063,6.246 l -0.008,10.594 0.008,3.676 v 7.355 c 0,-0.039 11.84,-0.457 11.84,-0.457 2.836,-0.285 3.512,-1.398 3.793,-2.457 0.008,-0.015 0.305,-2.601 0.305,-2.601 0,-0.805 0.508,-1.375 1.234,-1.375 1.227,0 1.227,1.492 1.227,2.207 l 0.332,5.301 0.664,4.746 c 0,1.211 -0.797,1.3 -1.043,1.3 l -1.688,-1.23 c -0.633,-0.707 -1.617,-0.859 -3.562,-1.027 l -13.238,-0.164 0.136,23.281 c 1,0.191 9.895,0.121 11.235,-0.043 4.582,-0.5 5.019,-1.5 5.441,-2.465 -0.008,0.012 0.449,-2.762 0.449,-2.762 0,-1.551 0.918,-1.715 1.305,-1.715 0.422,0 0.969,0.246 1.219,1.426 0.007,0.035 0.324,4.258 0.324,4.258 l 0.082,1.344 c 0,-0.008 0.504,2.847 0.504,2.847 l 0.191,1.121 c 0,1.293 -0.75,1.399 -0.98,1.399 l -0.926,-0.281"
         style="fill:#ffffff;fill-opacity:1;fill-rule:nonzero;stroke:none"
         id="path18" /><path
         d="m 390.895,390.141 -1.422,-0.063 -1.172,0.047 -7.707,0.207 c -0.485,0 -1.961,0 -1.961,-1.309 0,-0.648 0.555,-1.136 1.297,-1.136 l 2.699,-0.219 c 2.453,-0.531 2.941,-1.566 3.109,-4.199 0,-0.02 0.157,-18.028 0.157,-18.028 v -10.457 c 0,-9.996 -1.407,-16 -4.7,-20.086 -2.988,-3.566 -7.832,-5.785 -12.629,-5.785 -4.746,0 -8.261,0.723 -12.203,4.434 -3,2.859 -6.062,7.5 -6.062,20.191 v 11.703 l 0.16,18.028 c 0.172,2.902 0.797,3.926 2.551,4.183 0.008,0.004 1.988,0.235 1.988,0.235 0.762,0 1.316,0.48 1.316,1.136 0,1.309 -1.48,1.309 -1.964,1.309 l -6.215,-0.18 -2.078,-0.074 -1.735,0.059 -7.886,0.195 c -0.493,0 -1.973,0 -1.973,-1.309 0,-0.648 0.558,-1.136 1.305,-1.136 l 2.703,-0.219 c 2.277,-0.496 2.941,-1.398 3.093,-4.199 l 0.172,-18.028 v -12.207 c 0,-13.519 3.996,-19.113 7.485,-22.472 5.668,-5.324 13.492,-6.117 17.656,-6.117 4.508,0 11.238,0.656 17.656,6.363 7.012,6.23 7.91,16.887 7.91,25.472 v 8.961 l 0.164,18.028 c 0.157,2.871 0.758,3.847 2.579,4.187 0.027,0.008 1.968,0.231 1.968,0.231 0.754,0 1.301,0.48 1.301,1.136 0,1.309 -1.48,1.309 -1.965,1.309 l -5.597,-0.191"
         style="fill:#ffffff;fill-opacity:1;fill-rule:nonzero;stroke:none"
         id="path20" /><path
         d="m 413.328,386.688 -0.082,-47.926 c 0,-7.489 -0.422,-9.551 -2.051,-10.02 -0.019,-0.004 -3.25,-0.465 -3.25,-0.465 -0.898,0 -1.297,-0.57 -1.297,-1.14 0,-1.297 1.375,-1.297 1.965,-1.297 l 6.657,0.195 1.371,0.059 1.226,-0.051 7.633,-0.203 c 0.59,0 2.145,0 2.145,1.297 0,0.527 -0.348,1.14 -1.313,1.14 l -4.016,0.473 c -1.695,0.508 -2.597,2.059 -2.781,9.105 0,0 -0.949,35.2 -1.035,38.344 2.078,-2.285 20.676,-22.73 20.676,-22.73 9.082,-9.785 20.98,-21.899 21.859,-22.711 4.774,-4.746 5.602,-5.508 6.543,-5.508 1.285,0 1.387,0.996 1.387,6.582 0,0.016 0.152,48.992 0.152,48.992 0,5.219 0.442,6.367 2.598,6.836 0.012,0.004 1.883,0.227 1.883,0.227 1.074,0 1.562,0.636 1.562,1.23 0,1.215 -1.449,1.215 -2.144,1.215 l -5.614,-0.184 -1.5,-0.07 -1.785,0.067 -6.91,0.187 c -0.805,0 -2.312,0 -2.312,-1.215 0,-0.781 0.476,-1.23 1.304,-1.23 l 3.961,-0.399 c 1.996,-0.523 2.684,-1.652 2.754,-7.328 0,0 0.723,-32.984 0.899,-40.812 -1.625,1.761 -6.239,6.769 -6.239,6.769 l -12.695,13.832 -27.32,29.465 c -1.18,1.301 -1.95,2.086 -2.672,2.086 -1.449,0 -1.559,-1.906 -1.559,-4.812"
         style="fill:#ffffff;fill-opacity:1;fill-rule:nonzero;stroke:none"
         id="path22" /><path
         d="m 499.031,390.133 -1.347,-0.055 -1.293,0.051 -7.157,0.203 c -0.484,0 -1.964,0 -1.964,-1.309 0,-0.648 0.554,-1.136 1.285,-1.136 l 2.457,-0.301 c 1.285,-0.305 2.172,-1.117 2.355,-4.117 0,-0.016 0.164,-18.028 0.164,-18.028 v -14.726 c 0,-7.832 0,-14.594 -0.418,-18.059 -0.355,-2.554 -0.734,-3.812 -1.918,-4.058 -0.019,-0.004 -2.379,-0.321 -2.379,-0.321 -0.898,0 -1.308,-0.589 -1.308,-1.14 0,-1.297 1.492,-1.297 1.976,-1.297 l 6.844,0.203 1.356,0.051 0.949,-0.035 9.332,-0.219 c 1.793,0 1.98,0.906 1.98,1.297 0,0.551 -0.402,1.14 -1.289,1.14 l -3.676,0.325 c -1.988,0.273 -2.476,1.574 -2.734,4.046 -0.426,3.473 -0.426,10.235 -0.426,18.067 v 14.726 l 0.184,18.02 c 0.16,2.844 0.785,3.859 2.57,4.195 0.012,0 1.969,0.231 1.969,0.231 0.766,0 1.316,0.48 1.316,1.136 0,1.309 -1.5,1.309 -1.988,1.309 l -6.84,-0.199"
         style="fill:#ffffff;fill-opacity:1;fill-rule:nonzero;stroke:none"
         id="path24" /><path
         d="m 573.844,390.141 -1.235,-0.063 -1.941,0.07 -6.246,0.184 c -0.859,0 -2.469,0 -2.469,-1.309 0,-0.421 0.203,-1.136 1.551,-1.136 l 2.969,-0.289 c 0.562,-0.297 0.664,-0.961 0.664,-1.325 l -0.735,-2.976 c -1.691,-5.535 -12.054,-32.645 -17.25,-44.906 -1.05,2.797 -15.5,41.332 -15.5,41.332 -1.214,3.125 -2.226,5.75 -2.226,6.703 v 0 c 0,0.461 0.125,0.824 0.734,1.105 l 2.91,0.356 c 1.328,0 1.469,0.859 1.469,1.23 0,1.215 -1.816,1.215 -2.898,1.215 l -6.075,-0.184 -1.703,-0.07 -2.062,0.067 -7.715,0.187 c -1.184,0 -2.805,0 -2.805,-1.215 0,-0.758 0.5,-1.23 1.305,-1.23 l 3,-0.305 c 2.625,-0.762 3.785,-1.48 5.605,-6.066 l 20.676,-51.782 c 1.555,-3.91 2.02,-5.089 3.418,-5.089 1.031,0 1.403,0.835 2.645,3.601 l 1.433,3.145 10.332,24.214 4.957,11.95 4.891,11.871 c 2.191,5.515 3.391,6.898 4.359,7.566 1.418,0.895 3.106,0.895 3.657,0.895 1.429,0 1.64,0.769 1.64,1.23 0,0.809 -0.691,1.215 -2.058,1.215 l -5.297,-0.191"
         style="fill:#ffffff;fill-opacity:1;fill-rule:nonzero;stroke:none"
         id="path26" /><path
         d="m 619.504,390.715 -0.367,-0.149 -3.492,-0.41 c 0.011,0 -19.114,-0.078 -19.114,-0.078 l -1.097,0.043 -8.344,0.211 c -0.488,0 -1.988,0 -1.988,-1.309 0,-0.656 0.55,-1.136 1.316,-1.136 l 2.703,-0.219 c 2.27,-0.496 2.938,-1.398 3.094,-4.199 0,-0.008 0.176,-18.028 0.176,-18.028 v -14.726 c 0,-7.832 0,-14.594 -0.422,-18.059 -0.348,-2.496 -0.735,-3.812 -1.918,-4.058 -0.012,-0.004 -2.391,-0.321 -2.391,-0.321 -0.887,0 -1.297,-0.589 -1.297,-1.14 0,-1.297 1.492,-1.297 1.981,-1.297 l 6.816,0.199 1.371,0.055 3.196,-0.11 17.472,-0.386 c 3.313,0 4.43,0 5.133,2.632 0.41,1.778 1.098,7.52 1.098,8.278 0,0.613 0,1.89 -1.137,1.89 -1.047,0 -1.246,-1.066 -1.379,-1.769 -0.551,-3.238 -1.461,-4.742 -3.375,-5.559 -2.074,-0.871 -5.656,-0.871 -7.793,-0.871 -8.101,0 -8.848,1.024 -9.062,6.246 l -0.012,10.594 0.012,3.676 v 7.355 c 0,-0.039 11.847,-0.457 11.847,-0.457 3.168,-0.316 3.586,-1.718 3.797,-2.472 l 0.305,-2.586 c 0,-0.832 0.484,-1.375 1.23,-1.375 1.211,0 1.211,1.492 1.211,2.207 l 0.348,5.297 c 0,0.007 0.664,4.75 0.664,4.75 0,1.211 -0.805,1.3 -1.059,1.3 l -1.543,-1.089 c -0.765,-0.848 -1.746,-1 -3.707,-1.168 l -13.222,-0.164 0.129,23.281 c -0.129,0.191 11.246,-0.043 11.246,-0.043 4.554,-0.5 5.004,-1.504 5.429,-2.473 0,-0.012 0.446,-2.754 0.446,-2.754 0,-1.551 0.918,-1.715 1.312,-1.715 0.356,0 0.981,0.188 1.196,1.454 0,-0.02 0.335,3.96 0.335,3.96 l 0.11,1.598 0.664,3.984 c 0,1.262 -0.672,1.399 -0.965,1.399 l -0.953,-0.289"
         style="fill:#ffffff;fill-opacity:1;fill-rule:nonzero;stroke:none"
         id="path28" /><path
         d="m 648.672,390.16 -2.793,-0.082 -1.106,0.043 -8.347,0.211 c -0.488,0 -1.969,0 -1.969,-1.309 0,-0.656 0.551,-1.136 1.309,-1.136 l 2.679,-0.219 c 2.289,-0.496 2.95,-1.398 3.114,-4.199 l 0.175,-18.028 v -14.726 c 0,-7.832 0,-14.594 -0.429,-18.059 -0.328,-2.437 -0.727,-3.812 -1.918,-4.058 -0.012,-0.004 -2.379,-0.321 -2.379,-0.321 -0.899,0 -1.305,-0.57 -1.305,-1.14 0,-1.297 1.488,-1.297 1.977,-1.297 l 7.523,0.234 c 0.332,0.02 1.328,-0.019 1.328,-0.019 l 9.285,-0.215 c 1.809,0 2,0.906 2,1.297 0,0.551 -0.414,1.14 -1.324,1.14 l -3.664,0.325 c -1.992,0.277 -2.473,1.574 -2.715,4.039 -0.429,3.48 -0.429,10.242 -0.429,18.074 v 2.015 c -0.043,0.02 10.238,-0.128 10.238,-0.128 0.008,0 0.664,-0.336 0.664,-0.336 0,-0.02 2.879,-3.953 2.879,-3.953 l 6.152,-8.348 1.133,-1.481 c 4.172,-5.511 6.938,-9.148 10.363,-10.98 2.313,-1.258 4.559,-1.664 9.25,-1.664 h 5.942 c 1.05,0 2.656,0 2.656,1.297 0,0.633 -0.637,1.14 -1.402,1.14 l -3.164,0.243 c -2.176,0.343 -5.563,1.324 -9.829,5.824 -4.375,4.668 -9.492,11.246 -15.406,18.863 0,0 -1.148,1.484 -1.617,2.078 6.727,6.356 9.922,12.52 9.922,19.352 0,5.945 -3.797,10.277 -6.039,11.906 -4.66,3.336 -10.535,3.789 -15.668,3.789 z m 1.301,-32.461 c -0.27,0.18 -0.289,0.324 -0.289,0.477 v 27.34 c 0,0.218 0.07,0.328 0.261,0.402 0.641,0.187 2.782,0.473 5.383,0.473 8.664,0 13.832,-6.016 13.832,-16.098 0,-5.684 -1.805,-10.293 -4.832,-12.34 -1.855,-1.316 -4.133,-1.48 -5.906,-1.48 -3.953,0 -7.461,0.636 -8.449,1.226"
         style="fill:#ffffff;fill-opacity:1;fill-rule:nonzero;stroke:none"
         id="path30" /><path
         d="m 702.695,375.813 c 0,-5.708 1.887,-11.063 11.102,-18.637 l 3.762,-3.094 c 7.375,-6.074 9.394,-9.207 9.394,-14.574 0,-5.207 -3.887,-10.473 -11.316,-10.473 -3.047,0 -10.289,0.778 -11.77,8.016 l -0.222,2.961 c 0,0.468 0,1.554 -1.227,1.554 -1.109,0 -1.238,-1.23 -1.316,-1.894 0,-0.024 -0.063,-0.817 -0.063,-0.817 l -0.355,-8.125 c 0,-2.242 0.07,-2.988 1.613,-3.746 h 0.008 c 3.226,-1.578 6.992,-2.339 11.492,-2.339 5.094,0 9.586,1.261 12.984,3.648 5.446,3.871 7.379,9.98 7.379,14.406 0,6.547 -2.043,11.946 -12.461,20.156 l -2.328,1.833 c -8.004,6.554 -9.961,9.214 -9.961,13.554 0,5.422 3.867,9.071 9.633,9.071 6.922,0 9.227,-2.879 9.902,-4.114 0.438,-0.812 0.938,-2.996 1.024,-3.933 0.066,-0.594 0.195,-1.664 1.293,-1.664 1.234,0 1.234,1.671 1.234,2.57 l 0.274,8.223 0.035,0.628 c 0,1.215 -1.094,1.215 -1.453,1.215 l -2.797,0.407 c -2.387,0.582 -4.907,0.855 -7.918,0.855 -10.727,0 -17.942,-6.305 -17.942,-15.687"
         style="fill:#ffffff;fill-opacity:1;fill-rule:nonzero;stroke:none"
         id="path32" /><path
         d="m 758.816,390.133 -1.386,-0.055 -1.278,0.051 -7.152,0.203 c -1.316,0 -1.98,-0.437 -1.98,-1.309 0,-0.648 0.558,-1.136 1.304,-1.136 l 2.422,-0.301 c 1.141,-0.27 2.203,-0.949 2.383,-4.117 l 0.156,-18.028 v -14.726 c 0,-7.832 0,-14.594 -0.406,-18.063 -0.348,-2.492 -0.746,-3.808 -1.93,-4.054 -0.019,-0.004 -2.379,-0.321 -2.379,-0.321 -0.886,0 -1.297,-0.589 -1.297,-1.14 0,-1.297 1.481,-1.297 1.961,-1.297 l 6.86,0.203 1.336,0.051 0.988,-0.039 9.32,-0.215 c 1.766,0 1.95,0.906 1.95,1.297 0,0.57 -0.399,1.14 -1.297,1.14 l -3.661,0.325 c -1.988,0.277 -2.472,1.574 -2.718,4.043 -0.43,3.476 -0.43,10.238 -0.43,18.07 v 14.726 l 0.184,18.02 c 0.148,2.84 0.777,3.855 2.578,4.195 v 0 c 0.004,0 1.957,0.231 1.957,0.231 0.762,0 1.312,0.48 1.312,1.136 0,1.309 -1.496,1.309 -1.984,1.309 l -6.813,-0.199"
         style="fill:#ffffff;fill-opacity:1;fill-rule:nonzero;stroke:none"
         id="path34" /><path
         d="m 777.504,389.496 c -0.039,-0.152 -1.887,-7.91 -1.887,-8.918 0,-1.023 0.571,-1.387 1.055,-1.387 0.844,0 1.211,0.664 1.433,1.243 l 1.368,2.476 c 1.164,1.762 2.961,2.297 7.992,2.391 0,0 9.238,0.125 11.738,0.16 0,-1.246 0,-34.746 0,-34.746 0,-7.832 0,-14.594 -0.414,-18.059 -0.32,-2.437 -0.73,-3.812 -1.914,-4.058 -0.02,-0.004 -2.387,-0.321 -2.387,-0.321 -0.898,0 -1.297,-0.57 -1.297,-1.14 0,-1.297 1.481,-1.297 1.969,-1.297 l 6.82,0.199 1.375,0.055 0.993,-0.039 9.281,-0.215 c 1.73,0 1.988,0.812 1.988,1.297 0,0.551 -0.406,1.14 -1.301,1.14 l -3.679,0.325 c -1.973,0.273 -2.461,1.574 -2.719,4.046 -0.418,3.473 -0.418,10.235 -0.418,18.067 0,0 0,33.496 0,34.746 1.145,-0.02 9.891,-0.16 9.891,-0.16 8.058,-0.172 9.414,-2.149 9.675,-4.059 0,-0.015 0.079,-0.887 0.079,-0.887 0.054,-0.789 0.132,-2.003 1.32,-2.003 0.195,0 1.211,0.082 1.211,1.718 l 0.074,2.68 0.16,6.516 c 0,0.496 0,1.66 -1.051,1.66 l -0.988,-0.156 c -1.176,-0.243 -3.379,-0.692 -7.277,-0.692 H 789.23 l -6.562,0.414 c -0.016,0 -2.695,0.699 -2.695,0.699 l -1.032,0.309 c -0.73,0 -1.07,-0.867 -1.437,-2.004"
         style="fill:#ffffff;fill-opacity:1;fill-rule:nonzero;stroke:none"
         id="path36" /><path
         d="m 886.262,390.156 -2.207,-0.078 -1.336,0.074 -4.176,0.18 c -1.723,0 -1.98,-0.711 -1.98,-1.129 0,-0.867 0.82,-1.144 1.613,-1.414 0.367,-0.101 0.984,-0.262 0.984,-1.766 0,-1.191 -0.449,-2.515 -1.34,-3.937 -1.418,-2.367 -10.804,-18.512 -13.39,-23.609 -2.766,4.644 -13.555,23.187 -14.778,25.425 -0.625,1.184 -1.007,2.09 -1.007,2.953 0,0.372 0.25,0.692 0.742,0.946 0.008,0 0.426,0.164 0.426,0.164 0.546,0.219 1.175,0.457 1.175,1.152 0,0.809 -0.574,1.215 -1.715,1.215 l -5.898,-0.195 -1.145,-0.059 -1.957,0.067 -6.3,0.187 c -1.66,0 -1.739,-1.016 -1.739,-1.215 0,-0.722 0.606,-1.23 1.477,-1.23 0.582,0 2.066,-0.442 3.242,-1.235 1.656,-1.101 3.707,-3.347 5.504,-6.007 3.012,-4.446 14.156,-22.766 14.672,-23.993 1.109,-2.457 1.883,-4.179 1.883,-8.531 v -7.191 l -0.258,-8.301 c -0.109,-1.664 -0.559,-3.719 -2.082,-4.031 -0.012,-0.004 -2.375,-0.321 -2.375,-0.321 -0.902,0 -1.309,-0.57 -1.309,-1.14 0,-1.297 1.481,-1.297 1.969,-1.297 l 6.848,0.203 1.343,0.051 0.997,-0.039 9.285,-0.215 c 1.789,0 1.98,0.906 1.98,1.297 0,0.551 -0.406,1.14 -1.305,1.14 l -3.675,0.325 c -1.856,0.257 -2.696,1.425 -2.883,4.027 l -0.246,8.301 v 7.191 c 0,2.692 0,5.238 1.203,8.117 1.43,3.426 13.066,23.032 15.875,26.45 1.863,2.289 2.742,3.203 4.285,4.105 1.156,0.758 2.621,1.094 3.496,1.094 1.285,0 1.735,0.711 1.735,1.316 0,0.516 -0.45,1.129 -1.735,1.129 l -5.898,-0.176"
         style="fill:#ffffff;fill-opacity:1;fill-rule:nonzero;stroke:none"
         id="path38" /><path
         d="m 922.055,358.176 c 0,-16.149 10.351,-33.531 33.097,-33.531 19.696,0 33.996,14.664 33.996,34.863 0,19.137 -13.464,31.992 -33.503,31.992 -24.473,0 -33.59,-20.441 -33.59,-33.324 z m 9.234,2.336 c 0,16.578 9.106,26.879 23.762,26.879 11.941,0 24.797,-9.461 24.797,-30.235 0,-26.691 -18.7,-28.043 -22.453,-28.043 -15.368,0 -26.106,12.914 -26.106,31.399"
         style="fill:#ffffff;fill-opacity:1;fill-rule:nonzero;stroke:none"
         id="path40" /><path
         d="m 1032.6,390.688 -0.46,-0.227 -2.55,-0.258 -0.97,-0.047 c 0.01,0 -20.54,-0.078 -20.54,-0.078 l -1.1,0.043 -8.347,0.211 c -0.492,0 -1.985,0 -1.985,-1.309 0,-0.656 0.551,-1.136 1.317,-1.136 l 2.685,-0.219 c 2.29,-0.492 2.96,-1.398 3.11,-4.199 0,-0.008 0.18,-18.028 0.18,-18.028 v -14.726 c 0,-7.832 0,-14.594 -0.42,-18.059 -0.35,-2.496 -0.75,-3.812 -1.92,-4.058 -0.01,-0.004 -2.377,-0.321 -2.377,-0.321 -0.903,0 -1.309,-0.57 -1.309,-1.14 0,-1.297 1.488,-1.297 1.977,-1.297 l 6.819,0.199 1.37,0.055 1,-0.039 9.28,-0.215 c 1.79,0 1.99,0.906 1.99,1.297 0,0.57 -0.41,1.14 -1.32,1.14 l -3.65,0.325 c -1.99,0.277 -2.48,1.574 -2.72,4.043 -0.43,3.476 -0.43,10.238 -0.43,18.07 v 7.121 c 3.11,0.113 10.65,0.09 12.51,-0.129 2.21,-0.281 3.44,-1.531 3.83,-2.605 l 0.4,-2.379 0.05,-0.496 c 0,-0.743 0.5,-1.309 1.22,-1.309 1.22,0 1.22,1.449 1.22,2.23 l 0.34,5.536 c 0,0.004 0.67,4.75 0.67,4.75 0,1.211 -0.8,1.3 -1.04,1.3 -0.61,0 -0.98,-0.476 -1.3,-0.902 -0.7,-0.988 -1.45,-1.266 -3.52,-1.43 l -3.72,-0.089 -10.71,-0.079 0.05,23.2 c 0.11,0.285 12.98,0.035 12.98,0.035 3,-0.074 4.72,-1.422 5.14,-2.313 0,-0.008 0.68,-2.922 0.68,-2.922 0,-1.546 1.02,-1.625 1.23,-1.625 0.44,0 1.03,0.243 1.29,1.426 0,0.031 0.33,4.149 0.33,4.149 l 0.09,1.449 c 0,-0.004 0.49,2.855 0.49,2.855 l 0.19,1.117 c 0,0.821 -0.47,1.399 -1.14,1.399 l -0.91,-0.316"
         style="fill:#ffffff;fill-opacity:1;fill-rule:nonzero;stroke:none"
         id="path42" /><path
         d="m 137.895,277.367 v -5.094 h 892.055 v 5.094 H 137.895"
         style="fill:#ffffff;fill-opacity:1;fill-rule:nonzero;stroke:none"
         id="path44" /><path
         d="m 227.773,223.762 c 0,0 -31.945,-67.071 -34.839,-73.141 -0.567,1.168 -34.965,72.231 -34.965,72.231 -1.621,3.246 -2.469,4.183 -3.778,4.183 -0.851,0 -1.98,-0.629 -2.507,-3.621 l -12.786,-84.203 c -0.699,-4.75 -1.785,-9.242 -5.046,-9.93 -0.004,0 -3.805,-0.39 -3.805,-0.39 -0.59,0 -2.391,0 -2.391,-1.219 0,-1.742 1.922,-1.742 2.649,-1.742 l 7.941,0.23 4.844,0.16 4.137,-0.14 9.418,-0.25 c 1.656,0 3.418,0.129 3.418,1.742 0,0.769 -0.821,1.219 -2.254,1.219 l -5.356,0.64 c -2.433,0.571 -3.621,1.828 -3.621,3.821 l 0.383,6.027 c 0,0 5.875,44.98 6.633,50.773 1.058,-1.738 6.269,-12.824 6.269,-12.824 l 7.149,-15.308 c 1.527,-3.551 11.574,-23.02 14.863,-29.329 l 0.379,-0.711 c 1.961,-3.691 3.14,-5.921 4.422,-5.921 1.394,0 2.078,1.293 5.062,7.402 0,0 28.149,58.633 28.153,58.637 v 0 c 0,-0.524 7.664,-56.719 7.664,-56.719 0.164,-1.141 0.23,-2.07 0.23,-2.809 0,-1.57 -0.309,-2.281 -0.656,-2.398 -0.867,-0.371 -1.641,-0.832 -1.641,-1.731 v 0 c 0,-1.16 1.356,-1.5 4.035,-1.742 5.09,-0.371 22.883,-0.769 26.243,-0.769 2.367,0 3.675,0.609 3.675,1.742 0,1.219 -1.613,1.219 -2.39,1.219 -1.766,0 -4.258,0.14 -7.91,1.281 -3.797,1.137 -4.993,5.027 -6.098,12.777 l -11.758,79.809 c -0.41,2.879 -1.269,4.277 -2.637,4.277 -1.382,0 -2.105,-1.234 -3.129,-3.273"
         style="fill:#ffffff;fill-opacity:1;fill-rule:nonzero;stroke:none"
         id="path46" /><path
         d="m 328.84,224.93 -0.762,-0.227 -5.523,-0.769 c -2.192,-0.114 -23.289,-0.129 -32.254,-0.129 l -6.61,0.203 -1.511,0.055 c -0.012,0 -10.465,0.128 -10.465,0.128 -1.531,0 -3.164,-0.109 -3.164,-1.476 0,-1.481 1.695,-1.481 2.512,-1.481 l 4.96,-0.375 c 4.215,-0.898 5.075,-2.996 5.305,-7.078 0.266,-4.121 0.266,-7.668 0.266,-27.355 v -22.731 c 0,-11.836 0,-22.054 -0.641,-27.465 -0.578,-4.179 -1.277,-6.378 -3.5,-6.832 l -4.586,-0.507 c -1.019,0 -2.383,-0.141 -2.383,-1.36 0,-1.062 0.977,-1.601 2.899,-1.601 l 8.922,0.261 c 0.008,0 7.355,0.129 7.355,0.129 l 13.414,-0.39 3.75,-0.09 18.602,-0.301 c 4.976,0 6.32,0 7.281,3.59 0.668,2.652 1.695,11.41 1.695,14.422 0,1.301 0,2.648 -1.351,2.648 -1.242,0 -1.504,-0.918 -1.735,-2.199 -0.914,-5.328 -2.437,-7.859 -5.628,-9.328 -3.293,-1.524 -8.75,-1.524 -12.008,-1.524 -13.41,0 -14.934,2.141 -15.18,10.543 l -0.023,14.68 0.023,5.324 v 10.203 c 0,0.977 0.234,0.977 0.461,0.977 2.898,0 15.812,-0.129 18.297,-0.391 4.086,-0.433 6.234,-1.914 6.957,-4.793 l 0.418,-3.398 0.094,-1.211 c -0.004,-0.922 0.523,-1.445 1.48,-1.445 1.477,0 1.477,1.738 1.477,2.773 l 0.238,4.07 0.277,4.567 0.875,8.051 0.164,1.394 c 0,0.856 -0.445,1.348 -1.226,1.348 -0.742,0 -1.293,-0.629 -2.129,-1.582 -1.266,-1.418 -3.121,-1.785 -6.16,-2.031 -1.91,-0.172 -9.239,-0.262 -20.637,-0.262 -0.406,0 -0.586,0.101 -0.586,1.109 v 32.668 c 0,0.969 0.313,0.969 0.586,0.969 2.496,0 16.074,-0.246 18.301,-0.508 6.48,-0.781 7.566,-2.34 8.394,-4.449 0.727,-1.754 0.75,-4.258 0.75,-4.535 0,-0.637 0,-2.133 1.481,-2.133 1.261,0 1.515,1.223 1.609,1.68 0.004,0.011 0.469,5.922 0.469,5.922 l 0.176,2.636 c 0,0.012 0.851,7.145 0.851,7.145 l 0.184,1.277 c 0,0.363 0,1.484 -1.098,1.484 l -1.363,-0.3"
         style="fill:#ffffff;fill-opacity:1;fill-rule:nonzero;stroke:none"
         id="path48" /><path
         d="m 378.629,223.965 -6.84,-0.16 -6.551,0.156 -11.14,0.23 c -1.528,0 -3.16,-0.109 -3.16,-1.476 0,-1.481 1.695,-1.481 2.511,-1.481 l 4.192,-0.375 c 4.214,-0.898 5.07,-2.996 5.308,-7.078 0.258,-4.121 0.258,-7.668 0.258,-27.355 v -22.731 c 0,-11.836 0,-22.054 -0.644,-27.465 -0.579,-4.179 -1.278,-6.378 -3.493,-6.832 -0.011,0 -4.586,-0.507 -4.586,-0.507 -1.019,0 -2.382,-0.141 -2.382,-1.36 0,-1.601 2.179,-1.601 2.898,-1.601 l 8.91,0.261 c 0.016,0 7.363,0.129 7.363,0.129 l 20.161,-0.5 17.414,-0.281 c 6.789,0 7.605,0.66 8.449,3.731 1.043,3.8 1.941,13.441 1.941,14.929 0,1.242 0,2.512 -1.347,2.512 -1.493,0 -1.649,-1.441 -1.739,-2.223 -0.25,-2.418 -1.785,-5.949 -3.281,-7.566 -3.027,-3.274 -7.641,-3.512 -14.867,-3.512 -10.332,0 -13.391,0.969 -15.414,2.762 -2.606,2.226 -2.606,11.219 -2.606,27.523 v 22.731 c 0,19.687 0,23.234 0.258,27.355 0.27,4.711 1.414,6.492 4.52,7.071 0.008,0 4.976,0.382 4.976,0.382 1.375,0 2.649,0.18 2.649,1.481 0,1.301 -1.457,1.476 -3.035,1.476 l -10.723,-0.226"
         style="fill:#ffffff;fill-opacity:1;fill-rule:nonzero;stroke:none"
         id="path50" /><path
         d="m 461.789,133.52 c -3.949,1.601 -4.324,3.582 -4.324,12.101 v 30.606 c 0,0.539 0.191,0.582 0.457,0.582 l 5.543,-0.129 c 4.879,-0.25 7.836,-1.102 10.543,-3.039 h 0.008 c 11.183,-7.801 12.39,-20.391 12.39,-25.442 0,-15.429 -12.754,-16.211 -15.308,-16.211 -2.938,0 -5.856,0.121 -9.309,1.532 z m 0.781,84.746 c 11.528,0 15.825,-12.086 15.825,-19.703 0,-6.051 -1.797,-10.7 -5.172,-13.442 -2.246,-1.98 -5.27,-2.383 -9.094,-2.383 l -6,0.387 c -0.391,0.09 -0.664,0.223 -0.664,1.109 v 31.895 c 0,1.379 0.242,1.691 0.926,1.891 0.007,-0.004 4.179,0.246 4.179,0.246 z m -4.261,5.761 -9.297,-0.222 -4.969,0.125 -12.59,0.261 c -1.531,0 -3.16,-0.109 -3.16,-1.476 0,-1.481 1.695,-1.481 2.512,-1.481 l 4.957,-0.375 c 4.218,-0.898 5.074,-2.996 5.308,-7.078 0.258,-4.121 0.258,-7.668 0.258,-27.355 v -22.731 c 0,-11.836 0,-22.054 -0.633,-27.465 -0.48,-3.449 -1.074,-6.339 -3.492,-6.832 -0.008,0 -4.594,-0.507 -4.594,-0.507 -1.019,0 -2.375,-0.141 -2.375,-1.36 0,-1.601 2.172,-1.601 2.895,-1.601 l 8.914,0.261 c 0.008,0 7.355,0.129 7.355,0.129 l 9.668,-0.39 c 0.008,0 5.036,-0.231 5.036,-0.231 l 4.019,-0.16 c 24.043,0 34.801,14.301 34.801,28.473 0,14.609 -11.902,23.984 -23.227,28.004 7.743,6.257 12.899,12.539 12.899,22.492 0,4.617 -2.004,19.683 -27.824,19.683 l -6.461,-0.164"
         style="fill:#ffffff;fill-opacity:1;fill-rule:nonzero;stroke:none"
         id="path52" /><path
         d="m 534.426,179.07 c 0,34.887 19.711,40.094 31.457,40.094 22.094,0 37.523,-19.141 37.523,-46.551 0,-37.363 -20.734,-41.394 -29.652,-41.394 -23.152,0 -39.328,19.672 -39.328,47.851 z m -18.453,-4.007 c 0,-24.532 16.386,-50.942 52.367,-50.942 31.66,0 53.777,21.899 53.777,53.266 0,29.984 -20.113,48.617 -52.488,48.617 -36.867,0 -53.656,-26.406 -53.656,-50.941"
         style="fill:#ffffff;fill-opacity:1;fill-rule:nonzero;stroke:none"
         id="path54" /><path
         d="m 721.211,223.922 -3.727,-0.117 c -0.359,0.015 -14.847,0.386 -14.847,0.386 -1.465,0 -3.024,-0.109 -3.024,-1.476 0,-1.481 1.692,-1.481 2.508,-1.481 l 4.57,-0.375 c 4.219,-0.898 5.071,-2.996 5.313,-7.078 0.254,-4.121 0.254,-7.668 0.254,-27.355 v -16.141 c 0,-13.824 -0.543,-24.945 -7.399,-31.805 -6.203,-6.21 -14.371,-6.878 -17.586,-6.878 -4.464,0 -10.316,0.597 -15.941,5.218 -5.176,4.231 -9.961,10.969 -9.961,31.524 v 18.082 c 0,19.687 0,23.234 0.258,27.355 0.269,4.711 1.406,6.492 4.527,7.071 l 3.68,0.382 c 0.711,0 2.383,0 2.383,1.481 0,1.367 -1.633,1.476 -3.153,1.476 l -9.441,-0.222 -6.449,-0.164 -6.903,0.156 -11.949,0.23 c -1.531,0 -3.152,-0.109 -3.152,-1.476 0,-1.481 1.691,-1.481 2.508,-1.481 l 4.957,-0.375 c 4.218,-0.898 5.078,-3 5.312,-7.078 0.254,-4.121 0.254,-7.668 0.254,-27.355 v -18.852 c 0,-16.375 3.684,-27.324 11.606,-34.465 9.937,-8.988 23.211,-8.988 28.879,-8.988 7.519,0 17.398,1.07 27.07,9.379 10.879,9.32 12.379,24.309 12.379,39.113 v 13.813 c 0,19.687 0,23.234 0.254,27.355 0.265,4.711 1.41,6.492 4.511,7.071 0.012,0 3.696,0.382 3.696,0.382 1.367,0 2.636,0.18 2.636,1.481 0,1.367 -1.558,1.476 -3.023,1.476 l -11,-0.269"
         style="fill:#ffffff;fill-opacity:1;fill-rule:nonzero;stroke:none"
         id="path56" /><path
         d="m 776.602,174.195 c -0.7,0.313 -0.946,0.653 -0.946,2.032 v 39.25 c 0,0.961 0.211,1.3 0.93,1.503 1.164,0.352 3.246,0.512 6.758,0.512 7.222,0 19.441,-4.914 19.441,-23.32 0,-11.852 -4.695,-17.059 -7.492,-19.109 -2.215,-1.602 -3.828,-2.133 -8.98,-2.133 -3.68,0 -7.309,0.472 -9.711,1.265 z m 0.472,49.813 -9.48,-0.203 -5.172,0.133 -12.524,0.253 c -1.523,0 -3.16,-0.109 -3.16,-1.476 0,-1.481 1.7,-1.481 2.516,-1.481 l 4.961,-0.375 c 4.223,-0.898 5.07,-2.996 5.305,-7.078 0.257,-4.121 0.257,-7.668 0.257,-27.355 v -22.731 c 0,-11.836 0,-22.054 -0.64,-27.465 -0.473,-3.449 -1.067,-6.339 -3.492,-6.832 l -4.586,-0.507 c -1.02,0 -2.387,-0.141 -2.387,-1.36 0,-1.601 2.183,-1.601 2.906,-1.601 l 10.516,0.242 5.242,0.148 4.168,-0.109 14.809,-0.281 c 0.718,0 2.898,0 2.898,1.601 0,0.41 -0.184,1.36 -1.863,1.36 l -6.289,0.519 c -3.454,0.461 -4.34,2.75 -4.758,6.82 -0.645,5.411 -0.645,15.692 -0.645,27.598 v 1.805 c 0,0.539 0.184,0.715 0.715,0.715 l 11.227,-0.254 c 0.886,0 1.543,-0.137 2.09,-0.789 0.003,-0.008 6.175,-8.535 6.175,-8.535 l 6.594,-9.27 c 7.543,-10.379 12.371,-16.18 17.801,-19.078 3.5,-1.891 6.898,-2.492 13.972,-2.492 h 12.258 c 0.903,0 2.774,0 2.774,1.601 0,0.41 -0.184,1.36 -1.867,1.36 l -3.563,0.39 c -2.09,0.418 -7.297,1.449 -14.285,8.688 -6.574,6.902 -14.035,16.32 -23.484,28.234 0,0 -4.004,5.039 -4.34,5.469 11.847,9.676 16.933,18.359 16.933,28.961 0,9.414 -5.836,15.859 -8.922,17.953 -7.214,4.941 -16.148,5.605 -23.937,5.605 l -8.723,-0.183"
         style="fill:#ffffff;fill-opacity:1;fill-rule:nonzero;stroke:none"
         id="path58" /><path
         d="m 864.742,221.684 -1.16,-76.446 c -0.125,-11.136 -0.664,-14.758 -3.777,-15.718 -1.922,-0.551 -4.407,-0.629 -5.719,-0.629 -0.652,0 -2.387,0 -2.387,-1.36 0,-1.601 1.821,-1.601 3.156,-1.601 l 11.778,0.308 2.176,0.082 3.589,-0.109 12.422,-0.281 c 1.063,0 3.285,0 3.285,1.601 0,1.36 -1.761,1.36 -2.507,1.36 -1.914,0 -4.391,0.097 -6.614,0.89 -2.789,0.969 -4.078,5.168 -4.308,14.039 0,0 -1.379,52.489 -1.403,53.649 0.719,-0.629 2.618,-2.692 2.618,-2.692 5.429,-5.964 16.726,-18.375 27.945,-29.496 l 17.137,-17.152 20.961,-20.82 c 1.484,-1.481 3.062,-2.918 4.613,-2.918 1.762,0 1.996,2.179 1.996,4.32 l 1.422,81.473 c 0.129,7.218 1.187,9.714 4.543,10.675 -0.012,0 3.785,0.375 3.785,0.375 1.758,0 2.652,0.5 2.652,1.481 0,1.476 -1.976,1.476 -3.289,1.476 l -10.301,-0.289 -2.359,-0.097 -4.551,0.133 -11.07,0.253 c -1.555,0 -3.68,0 -3.68,-1.476 0,-1.313 1.278,-1.481 2.391,-1.481 1.805,0 4.836,0 6.723,-0.754 2.726,-1.136 4.054,-3.125 4.187,-11.332 0,0 1.211,-54.257 1.285,-57.66 -0.156,0 -0.312,0 -0.312,0 h -0.004 c 0,0.133 -9.063,9.543 -9.063,9.543 l -19.129,19.809 c -19.632,19.504 -39.824,41.234 -40.023,41.449 l -1.203,1.309 c -1.524,1.679 -2.531,2.793 -3.801,2.793 -1.797,0 -2.004,-2.688 -2.004,-4.707"
         style="fill:#ffffff;fill-opacity:1;fill-rule:nonzero;stroke:none"
         id="path60" /><path
         d="m 1026.81,224.926 -0.75,-0.223 c -0.02,0 -5.53,-0.769 -5.53,-0.769 -2.18,-0.114 -23.28,-0.129 -32.249,-0.129 l -6.593,0.203 -1.528,0.055 c -0.015,0 -10.472,0.128 -10.472,0.128 -1.524,0 -3.157,-0.109 -3.157,-1.476 0,-1.481 1.696,-1.481 2.512,-1.481 L 974,220.859 c 4.219,-0.898 5.074,-2.996 5.309,-7.078 0.265,-4.121 0.265,-7.668 0.265,-27.355 v -22.731 c 0,-11.836 0,-22.054 -0.644,-27.465 -0.473,-3.441 -1.063,-6.339 -3.489,-6.832 -0.003,0 -4.589,-0.507 -4.589,-0.507 -1.024,0 -2.387,-0.141 -2.387,-1.36 0,-1.601 2.187,-1.601 2.902,-1.601 l 8.91,0.261 c 0.012,0 7.368,0.129 7.368,0.129 l 13.415,-0.39 3.74,-0.09 18.61,-0.301 c 4.85,0 6.32,0 7.28,3.59 0.66,2.633 1.69,11.391 1.69,14.422 0,1.301 0,2.648 -1.35,2.648 -1.24,0 -1.5,-0.918 -1.73,-2.199 -0.91,-5.328 -2.44,-7.852 -5.64,-9.328 -3.29,-1.524 -8.75,-1.524 -12.01,-1.524 -13.4,0 -14.92,2.141 -15.166,10.543 l -0.023,14.68 0.023,5.324 v 10.203 c 0,0.977 0.227,0.977 0.45,0.977 2.898,0 15.816,-0.129 18.306,-0.391 4.09,-0.441 6.24,-1.914 6.95,-4.793 l 0.42,-3.433 0.09,-1.176 c 0,-0.922 0.53,-1.445 1.48,-1.445 1.48,0 1.48,1.738 1.48,2.773 l 0.24,4.184 0.28,4.453 0.87,8.039 0.17,1.406 c 0,0.856 -0.45,1.348 -1.23,1.348 -0.75,0 -1.3,-0.633 -2.13,-1.594 -1.27,-1.406 -3.12,-1.773 -6.16,-2.019 -1.9,-0.172 -9.23,-0.262 -20.634,-0.262 -0.414,0 -0.582,0.101 -0.582,1.109 v 32.668 c 0,0.969 0.317,0.969 0.582,0.969 2.493,0 16.074,-0.246 18.304,-0.508 6.49,-0.781 7.57,-2.34 8.39,-4.449 0.73,-1.746 0.75,-4.254 0.75,-4.535 0,-0.637 0,-2.133 1.48,-2.133 1.27,0 1.52,1.266 1.6,1.684 0.01,0.007 0.48,5.906 0.48,5.906 l 0.18,2.648 c 0,0.012 0.85,7.153 0.85,7.153 l 0.18,1.269 c 0,0.984 -0.37,1.484 -1.09,1.484 l -1.38,-0.304"
         style="fill:#ffffff;fill-opacity:1;fill-rule:nonzero;stroke:none"
         id="path62" /><path
         d="m 580.316,462.086 c -21.57,21.562 -48.246,32.969 -74.043,44 l -2.058,0.871 c -0.336,0.129 -13.735,5.141 -13.735,5.141 -1.636,0.613 -2.687,1.004 -3.324,1.297 l -2.367,1.078 -0.094,-0.27 c -84.484,29.883 -136.156,99.453 -138.375,186.543 -0.132,3.551 -0.203,7.305 -0.203,11.188 0,13.07 0.781,26.8 2.313,40.808 1.109,8.297 3.707,27.77 3.769,28.274 l 7.481,44.449 c 0.765,4.555 1.152,6.84 1.414,7.91 l 0.66,2.711 -0.496,0.035 c 0.449,6.168 0.898,13.746 0.898,21.242 0,30.649 -7.773,50.008 -25.195,62.778 l -0.129,0.097 -2.273,2.282 37.574,48.968 -1.074,1.426 c -2.938,3.902 -4.641,7.973 -5.071,12.102 l -0.578,5.55 5.262,-1.867 c 3.351,-1.195 6.726,-2.258 10.324,-3.25 l 1.524,-0.422 37.363,48.683 1.707,-2.86 c 7.004,-11.8 19.523,-17.53 38.277,-17.53 7.684,0 16.492,0.93 27.735,2.93 0,0 36.91,5.69 37.23,5.74 25.563,2.97 30.418,3.53 31.203,3.62 l 2.332,0.25 c 7.281,0.71 15.106,1.07 23.289,1.07 16.117,0 33.578,-1.36 51.903,-4.04 0.113,-0.02 26.207,-3.9 26.449,-3.94 l 32.523,-5.4 c 4.77,-0.46 10.227,-0.91 15.754,-0.91 14.578,0 24.762,3.22 32.047,10.16 1.613,1.43 2.93,3.11 4.199,4.74 l 3.637,4.58 34.387,-45.241 1.64,0.625 c 5.575,2.125 13.196,4.894 22.93,8.394 0,0 5.086,1.836 6.766,2.446 12.613,4.586 22.867,7.696 31.355,9.486 l 6.688,1.42 -2.731,-6.27 c -2.328,-5.339 -4.43,-9.382 -6.613,-12.722 l -4.078,-6.25 6.922,2.789 c 0.14,0.055 5.023,2.004 9.199,3.668 l -4.403,-8.422 c -2.351,-4.504 -11.41,-18.781 -19.804,-24.973 l -1.84,-1.359 1.312,-1.875 c 0.063,-0.09 0.122,-0.176 0.176,-0.266 0.871,-1.386 1.364,-3.543 1.364,-5.937 0,-2.27 -0.446,-4.535 -1.18,-6.063 -0.949,-1.961 -2.387,-4.57 -5.141,-7.379 l -1.418,-1.449 9.239,-12.156 -1.801,-1.356 c -17.758,-13.359 -26.391,-33.953 -26.391,-62.957 l 0.016,-0.972 c -0.059,-1.492 -0.078,-3.074 -0.078,-4.688 0,-6.699 0.464,-13.972 1.386,-21.625 l 4.52,-28.363 c 3.172,-18.961 4.812,-28.766 4.871,-29.164 0.875,-8.344 3.141,-29.914 3.32,-31.57 1.098,-26.84 1.196,-29.262 1.199,-29.422 0.024,-1.102 0.036,-2.246 0.036,-3.391 0,-46.965 -15.758,-94.531 -41.125,-124.137 l -0.5,-0.613 c -16.5,-20.094 -39.106,-47.625 -100.789,-69.332 -34.61,-12.594 -65.383,-24.918 -91.805,-48.379 l -0.106,-0.09 -0.984,-1.125 -0.816,-0.89 -1.899,-2.114 -1.676,1.688"
         style="fill:#ffffff;fill-opacity:1;fill-rule:nonzero;stroke:none"
         id="path64" /><path
         d="m 513.754,942.41 c -14.027,7.488 -34.106,6.817 -45.477,9.77 -11.539,2.996 -13.023,3.726 -13.023,3.726 4.492,-0.758 8.648,-2.07 13.476,-2.672 15.344,-1.91 32.29,-2.679 45.133,-8.121 7.266,-3.078 11.157,-10.441 12.934,-18.258 -2.992,6.047 -7.234,12.454 -13.043,15.555 z M 639.555,764.781 c 11.613,-14.554 12.429,-14.601 22.55,-24.722 -5.507,2.679 -17.386,13.761 -23.867,21.789 -9.925,12.3 -14.543,23.097 -16.226,34.539 0,0 5.929,-17.051 17.543,-31.606 z m -77.996,132.16 c -9.379,1.489 -17.493,-2.711 -24.715,-12.238 -9.426,-2.902 -15.129,-6.398 -22.461,-13.863 -5.211,1.789 -11.164,5.082 -12.926,6.164 1.09,2.715 3.027,4.898 5.606,6.039 -2.383,1.488 -6.52,3.531 -5.778,6.211 1.406,5.055 7.942,2.086 15.184,5.027 -2.903,1.414 -6.332,3.606 -4.918,7.746 1.39,4.141 7.812,3.485 12.949,2.219 -2.828,2.754 -3.465,7.414 -0.434,9.406 3.039,1.977 9.664,1.286 9.664,1.286 0.153,3.527 2.762,6.031 4.696,8.8 -3.078,-0.722 -4.863,-4.59 -5.883,-6.925 -9.461,0.789 -13.738,-3.836 -11.582,-9.793 -4.539,0.894 -9.195,0.109 -10.984,-3.762 -11.563,6.883 -28.821,11.855 -41.086,12.551 -1.828,0.101 -2.59,0.078 -4.235,0.3 -1.347,1.493 -2.652,5.219 -3.047,6.719 -1.367,5.199 -3.914,12.563 -9.304,15.156 11.3,-1.531 41.675,-7.379 60.672,-15.273 -13.926,10.281 -51.594,15.453 -74.536,20.809 -17.164,4.007 -40.574,11.363 -55.144,21.656 -8.242,5.824 -13.02,12.625 -13.805,20.203 10.438,-3.711 19.371,-5.649 31.352,-8.086 8.109,-1.648 14.679,-2.746 26.242,-5.207 10.766,-2.297 26.457,-6.93 26.457,-6.93 24.445,-7.039 51.809,-2.5 75.805,-10.679 10.785,-4.153 10.257,-17.27 11.859,-27.239 l 2.578,-2.566 c 0,-13.859 6.656,-19.387 17.774,-27.731 z m 86.703,-132.765 c 11.933,-14.594 23.058,-22.285 25.398,-23.91 0,0 -16.316,15.273 -19.594,21.226 27.543,-21.433 49.032,-29.941 59.274,-37.25 -3.809,0.86 -8.504,1.305 -10.813,-1.773 -2.312,-3.078 -0.539,-7.828 -1.992,-12.367 -0.789,-3.426 -3.121,-4.008 -4.297,-4.008 -2.05,12.898 -12.3,14.926 -12.3,14.926 2.582,-3.071 5.859,-6.047 6.601,-10.661 -9.613,1.692 -27.773,12.805 -27.754,12.961 -9.519,-0.531 -21.074,0.59 -27.133,4.532 -6.914,4.515 7.489,5.257 1.594,9.972 -2.605,2.086 -5.617,-0.172 -7.816,3.125 -1.489,2.235 4.019,7.074 1.636,11.762 -1.503,2.965 -4.398,2.875 -6.882,0.492 -2.536,-2.375 -3.985,-11.805 -11.352,-9.945 -4.324,1.094 -2.977,8.41 -7.594,11.836 -3.008,2.234 -7.164,2.242 -9.675,-0.371 -3.083,-3.211 -2.383,-7.567 -2.383,-7.567 -8.742,17.399 -0.293,54.356 -0.293,54.356 -9.254,-24.032 -9.168,-44.782 -2.086,-57.434 -2.262,1.11 -5.957,4.715 -6.895,6.848 -1.972,4.484 -4.867,10.719 -4.125,16.82 -5.508,-9.676 5.11,-27.258 0.895,-27.168 -3.496,0.074 -3.449,6.914 -7.817,9.231 -4.496,2.382 -6.14,-1.618 -7.961,-0.075 -2.027,1.711 7.516,8.485 -0.82,13.25 -4.512,2.579 -6.543,-2.226 -10.23,-0.125 -3.703,2.121 -8.465,1.164 -8.465,1.164 -1.598,8.461 9.019,46.598 9.019,46.598 6.336,-3.176 15.243,1.988 15.243,1.988 4.765,-8.968 14.32,-1.64 18.5,1.844 3.16,2.645 4.164,4.867 7.867,6.512 4.015,1.789 8.707,-0.742 12.812,1.043 4.418,1.922 5.442,4.582 5.442,4.582 5.703,-4.996 12.484,-23.133 15.214,-29.324 9.329,-21.184 18.782,-33.09 18.782,-33.09 z m 66.07,-46.574 c 0.77,-4.266 -4.738,-7.168 -8.977,-7.782 l -1.335,-0.125 c 0.128,4.024 -0.672,11.66 3.496,12.418 4.172,0.762 6.023,-1.258 6.816,-4.511 z M 615,830.941 c -2.66,-0.152 -0.961,-1.281 -6.676,-5.671 -1.168,-0.879 -5.308,-1.461 -8.82,-1.102 0.973,1.812 2.453,3.418 0.476,7.441 -2.035,4.145 -5.191,5.18 -6.675,5.211 2.324,-1.703 4.144,-3.828 5.218,-6.32 0.864,-2 0.207,-4.355 -1.546,-6.109 -1.86,-0.45 -4.067,-1.661 -5.629,-3.075 1.394,5.274 -3.243,13.051 -7.102,14.157 3.438,-4.602 6.43,-7.813 4.543,-15.774 -1.191,-2.679 -11.851,-10.004 -15.078,-7.344 -5.191,4.59 -0.941,8.262 -2.863,13.379 -0.426,0.895 -0.739,2.157 -1.485,1.856 1.461,-4.969 -0.695,-7.129 -0.297,-12.281 -3.574,-1.266 -5.492,-1.985 -8.027,-1.489 -1.18,1.469 -2.086,3.871 -1.312,7.688 0.773,3.812 3.765,8.816 7.003,12.797 0,0 -1.66,-0.571 -3.203,-1.996 -4.625,-4.274 -7.007,-9.856 -6.664,-13.813 0.16,-1.828 0.371,-3.387 1.719,-4.75 -0.957,-0.023 -5.852,0.242 -7.269,3.145 -2.793,5.714 1.3,10.996 4.355,14.793 2.504,3.117 6.637,4.98 6.637,4.98 6.433,3.074 15.765,1.867 22.261,2.859 6.497,0.993 11.965,-0.023 17.399,-1.734 5.433,-1.715 8.933,-3.937 13.035,-6.848 z m -113.34,61.653 c -3.199,-1.785 -2.371,-4.285 -1.656,-5.938 1.012,-2.347 3.656,-3.625 3.656,-3.625 -1.496,-0.918 -3.273,-2.718 -4.613,-4.652 -3.422,1.82 -8.25,4.476 -12.453,5.879 -7.84,4.562 -15.328,7.293 -23.469,6.73 -2.359,-0.164 -7.531,-2.004 -9.219,-2.699 -5.531,0.965 -13.851,5.703 -16.07,8.344 10.172,-1.399 16.773,-1.039 22.656,-0.637 10.078,0.738 16.664,2.445 16.664,2.445 8.336,-3.273 14.282,-5.961 24.504,-5.847 z m 295.785,15.793 c -7.539,-23.977 -28.875,-20.946 -36.492,-16.117 7.86,2.398 11.188,9.058 11.188,9.058 10.707,-0.871 17.871,1.094 25.304,7.059 z m -28.101,-6.528 c -0.696,-2.976 -6.559,-7.445 -12.739,-8.363 -0.164,-0.043 -0.832,4.723 -7.457,4.277 -3.726,-0.25 -3.707,-0.773 -6.339,-1.363 1.164,1.621 0.828,4.016 -0.192,5.778 -0.301,0.441 -1.058,1.156 -1.66,1.156 -1.742,0 -3.566,-0.582 -5.758,-1.969 -2.234,-1.414 -4.476,-1.043 -6.254,-1.711 -3.113,-1.172 -5.254,-3 -7.586,-6.633 -0.675,-0.511 -1.605,-0.281 -3.125,-0.164 -1.425,0.621 -26.367,-3.043 -26.367,-3.043 -4.664,0.297 -11.054,-0.156 -19.191,2.324 0,0 6.738,3.356 3.176,9.293 0,0 33.593,7.344 46.855,11.051 13.262,3.707 20.434,6.121 24.898,8.305 -0.792,-3.078 2.18,-8.508 7.489,-12.676 3.672,-2.883 11.176,-5.664 14.25,-6.262 z M 509.43,901.094 c -0.09,-1.629 0.207,-4.16 3.226,-6.133 -2.015,-0.254 -6.488,-0.203 -8.871,-1.023 -14.75,0.832 -29.539,5.253 -37.91,19.441 3.727,0.008 7.137,0.254 12.754,-0.961 8.035,-1.738 20.121,-5.297 30.801,-11.324 z m -45.871,12.086 c 1.187,-1.586 3.386,-7 11.453,-12.785 -4.512,-1.227 -9.367,-1.707 -16.407,-2.075 -9.527,-0.496 -18.125,0.504 -18.125,0.504 -14.101,1.141 -32.062,18.086 -36.523,24.68 9.488,-4.996 22.125,-8.945 31.977,-10.152 9.851,-1.204 19.406,-1.387 27.625,-0.172 z m 150.683,20.207 c 0.738,0.14 1.336,0.59 2.223,0.426 0.996,-3.364 -2.692,-4.418 -4.844,-4.969 -1.613,-0.164 -2.5,1.179 -3.082,2.332 0,1.004 0.024,2.312 -0.711,3.129 0.02,0.461 0.203,0.89 0.711,1.261 1.336,-1.894 3.367,-2.921 5.703,-2.179 z m 204.246,-3.16 c -8.5,-11.856 -24.129,-21.778 -30.191,-24.383 -4.395,-1.883 -10.133,-3.305 -19.555,-1.09 -4.929,1.141 -9.543,3.254 -12.777,5.84 -6.324,5.058 -5.973,8.523 -5.86,10.301 0.075,1.218 2.184,3.906 4.325,3.207 23.32,-5.918 56.336,1.199 64.058,6.125 z m -376.465,10.191 c 16.875,-2.953 16.04,-18.188 20.204,-24.707 -14.239,-0.773 -20.52,-1.273 -31.457,1.25 -38.707,8.934 -46.075,27.156 -56.477,51.691 18.75,-16.937 59.836,-26.847 67.73,-28.234 z m 175.305,2.996 c -0.269,-1.172 0.445,-0.891 1.469,-2.062 0,-2.196 -1.469,-3.954 -3.211,-4.969 -1.613,-0.879 -4.09,-1.457 -5.707,-0.153 -0.895,0.575 -3.059,1.168 -3.059,1.168 0,3.817 4.539,5.715 7.461,7.028 1.289,0.59 2.629,0.289 3.047,-1.012 z m -23.226,1.051 c 3.82,-1.184 10.707,-8.082 12.476,-11.602 0.582,-2.777 -0.586,-5.414 -2.348,-7.465 -1.617,-0.589 -3.355,-2.347 -3.937,-3.933 0.281,1.742 -0.164,3.344 -1.188,4.672 -1.617,1.023 -3.332,2.816 -4.058,4.738 -6.074,-0.113 -15.055,-0.324 -18.332,2.676 -0.074,1.191 -0.52,2.234 -1.711,3.648 1.934,0.227 9.059,-0.386 12.902,-0.523 3.848,-0.137 9.129,-0.071 10.164,-1.617 0,-0.723 -0.715,-0.723 -1.168,-0.883 -0.437,-0.141 -1.015,0.16 -1.304,-0.141 1.175,-1.906 3.507,-2.328 5.558,-1.754 1.18,0.582 1.778,1.762 1.032,3.223 -1.133,2.215 -3.79,2.605 -7.18,3.074 -3.387,0.469 -21.102,0.735 -21.102,0.735 -1.879,2.054 -6.047,5.031 -8.726,6.371 -0.301,1.312 1.273,2.449 2.125,2.015 7.179,-2.508 18.91,-2.234 26.797,-3.234 z m 177.773,-2.649 c -0.789,-3.57 -6.043,-7.836 -10.145,-10.164 -4.589,-2.605 -11.14,-4.179 -13.363,-7.656 -2.941,-2.625 -28.437,-9.969 -40.461,-12.992 -12.023,-3.02 -21.84,-5.598 -33.363,-7.524 -2.164,1.77 -5.445,1.641 -7.523,1.274 2.976,6.152 1.816,10.32 -3.543,11.906 l 58.32,21.028 c 10.738,3.089 24.191,6.906 33.164,7.191 5.852,-1.395 9.855,-3.063 16.914,-3.063 z m -158.984,6.168 c 0,-1.168 -0.379,-1.55 -0.942,-2.41 -0.558,-0.855 -1.801,-2.168 -4.176,-1.547 -0.281,2.071 0.899,4.254 2.79,5.418 1.019,0.309 2.328,-0.3 2.328,-1.461 z m -6.094,2.614 c 0.383,-1.387 0.094,-5.137 -2.578,-6.535 -4.981,-2.325 -8.016,2.835 -12.106,4.011 -7.629,1.18 -16.746,-0.136 -24.054,1.77 1.964,2.816 5.242,5.824 9.187,7.156 4.668,1.461 13.633,3.445 19.984,1.477 6.2,-1.926 8.821,-5.348 9.567,-7.879 z m 132.371,1.394 c 4.738,-1.586 11.961,-4.887 8.609,-5.902 -25.754,-4.32 -42.66,-11.516 -87.109,-28.535 -1.512,0.062 -3.375,-0.223 -4.863,-0.793 0.496,2.281 0.3,4.957 -2.285,7.543 -2.082,2.082 -5.504,3.129 -10.817,1.191 13.024,8.496 26.391,17.024 41.086,22.43 11.738,4.312 24.367,6.398 38.012,6.648 8.34,0.153 13.211,-1.187 17.367,-2.582 z m 87.918,-8.89 c -1.391,-2.879 -3.359,-5.899 -7.418,-9.051 -8.461,-7.145 -48.766,-12.957 -64.176,-7.817 16.356,6.59 18.055,12.079 19.047,16.246 12.258,0.461 30.633,1.868 51.184,10.805 2.379,0.606 2.828,-7.152 1.363,-10.183 z M 582.023,960.82 c -5.609,-0.715 -12.753,-2.054 -17.015,-9.699 -1.992,1.613 -1.32,4.891 0.914,7.793 1.621,2.109 7.441,4.391 16.101,1.906 z m 265.086,22.852 c -2.515,-6.563 -11.171,-21.613 -20.629,-26.406 -13.011,-7.317 -31.429,-10.391 -45.503,-11.973 -11.278,-1.617 -20.075,0.547 -24.149,1.844 0,0 -4.191,1.34 -5.598,2.402 21.083,11.352 46.809,19.035 73.692,26.254 14.922,5.172 16.766,5.715 22.187,7.879 z m -1.136,20.718 c -7.618,-17.48 -12.418,-22.546 -24.125,-26.644 0,0 -37.778,-11.582 -47.442,-15.285 -11.211,-4.297 -19.984,-8.969 -25.707,-12.254 -20.109,12.254 -57.066,3.113 -66.035,-0.254 -14.457,-5.433 -29.277,-14.285 -41.574,-23.055 -1.832,1.801 -4.285,4.739 -6.348,4.887 0,0 6.274,-3.808 5.137,-10.418 1.594,0.446 7.781,5.11 12,1.403 4.238,-3.7 -0.09,-8.165 -1.574,-11.68 4.539,3.515 9.41,6.262 14.359,3.023 5.504,-3.601 -0.703,-10.215 -2.531,-13.316 4.086,0.73 8.289,3.84 11.195,-0.379 2.902,-4.219 -1.465,-6.418 -5.578,-8.754 3.949,0.289 4.234,-2.789 15.547,-3.484 -5.262,-0.496 -10.723,-1.082 -14.227,-1.395 -2.543,0.567 -5.554,2.008 -10.597,3.422 -13.059,3.656 -20.848,7.715 -25.993,9.383 -5.14,1.668 -11.179,2.203 -15.046,0.996 -2.082,-0.043 -2.114,-0.875 -3.883,-1.016 17.289,6.153 12.121,26.942 20.328,39.524 8.336,15.672 25.762,19.414 41.269,22.203 20.196,2.781 51.825,5.844 61.188,7.762 16.875,3.457 37.906,10.339 42.148,12.336 5.172,2.429 27.852,10.449 36.614,13.64 8.757,3.188 20.488,7.155 30.875,9.355 z m -20.657,-82.722 c -17.336,-13.82 -22.668,-34.758 -23.718,-41.109 -2.875,-18.407 -3.493,-39.071 -0.153,-57.172 l 9.207,-57.172 2.692,-25.031 1.086,-29.262 C 816.352,644.363 783.836,553.844 672.906,517.465 L 646.07,507.078 c -22.629,-9.969 -44.797,-20.836 -64.105,-38.324 -26.863,23.988 -58.531,37.094 -90.516,49.336 -101.82,32.234 -137.523,118.226 -139.379,177.39 -0.89,19.891 -0.14,41.172 2.258,61.083 l 4.238,30.175 7.079,40.879 c 3.168,23.086 3.339,48.727 -4.368,69.836 -3.761,9.649 -10.714,18.406 -19.152,25.942 9.309,12.332 20.066,26.562 29.688,39.066 0.156,-0.359 0.308,-0.699 0.468,-1.07 0.082,-0.188 0.172,-0.387 0.254,-0.575 1.621,-4.48 3.426,-7.929 4.856,-10.296 0.718,-1.364 1.472,-2.743 2.304,-4.141 l -16.152,-21.625 c 19.918,-22.473 20.965,-54.305 20.055,-84.176 l -2.403,-18.547 -8.761,-52.957 -3.454,-30.156 -1.066,-27.762 c -3.43,-67.789 48.191,-154.621 143.149,-183.133 24.742,-9.933 48.73,-21.406 70.902,-37.714 22.176,16.156 46.461,27.453 71.351,37.136 109.891,30.942 143.149,115.684 144.489,171.641 1.23,20.672 -0.59,41.043 -2.707,60.789 l -4.219,28.07 -5.734,34.993 c -3.45,19.429 -2.735,43.097 0.738,61.945 5.902,2.59 12.234,8.332 16.094,20.601 l 0.566,1.801 c 6.418,4.438 14.309,11.613 19.535,18.707 0.762,-0.316 1.606,-1.695 3.238,-4.324 z M 599.156,855.5 c -1.859,-3.457 -4.152,-6.148 -11.519,-6.477 -9.383,-0.421 -11.563,5.106 -11.563,5.106 0.574,-2.887 2.602,-8.945 11.629,-8.547 11.5,0.512 11.453,9.918 11.453,9.918 z m 12.731,38.09 c -11.332,-10.774 2.062,-38.012 -5.606,-49.102 -0.828,-1.203 -1.711,-2.679 -2.308,-3.871 -6.102,2.008 -9.785,2.172 -14.961,2.231 -3.059,0.039 -6.703,-0.684 -9.153,-0.891 -6.105,-0.523 -10.644,0.074 -16.226,-1.117 0.418,1.207 1.211,2.199 2.305,3.871 -5.211,-0.148 -9.153,0.891 -12.055,4.687 -1.863,2.606 -2.231,5.79 -1.27,8.411 1.485,4.046 5.746,7.816 7.528,11.543 0,0 2.996,4.683 4.086,10.343 0.519,-1.863 1.402,-4.925 6.484,-6.101 4.727,-1.09 9.898,0.676 18.301,4.91 -3.832,-6.098 -9.297,-9.91 -19.5,-11.555 3.519,-0.722 10.199,0.707 17.051,4.293 8.312,4.36 18.8,18.77 18.8,18.77 2.485,2.215 7.403,4.297 6.524,3.578 z m 47.984,-251.934 c -26.426,28.211 -52.668,70.871 -56.164,72.18 0,0 32.57,-49.457 38.488,-57.84 5.918,-8.383 13.969,-16.344 17.774,-23.094 1.176,1.977 2.98,5.469 -0.098,8.754 z m 95.516,-14.687 c -6.047,0.676 -11.227,0.351 -13.403,-5.371 -3.062,-7.035 -4.726,-12.188 -7.132,-16.254 -2.86,-4.836 -7.504,-9.051 -15.336,-11.231 -7.836,-2.175 -18.774,-2.683 -20.125,2.024 2.011,9.562 15.019,11.051 20.55,13.722 10.344,5 11.305,14.098 11.645,23.477 -14.547,9.363 -43.848,32.602 -43.848,32.602 0,0 25.535,-25.348 39.125,-34.403 0,-7.976 -2.086,-12.508 -8.402,-16 -4.125,-2.285 -8.836,-3.98 -14.672,-6.926 -9.973,-5.656 -6.996,-13.695 -20.492,-18.843 -5.656,-2.157 -19.309,-4.039 -15.738,3.351 5.105,7.664 -0.34,7.703 -0.34,7.703 -3.114,-0.918 -11.395,-3.222 -15.684,-3.394 -2.629,-0.102 -5.277,1.808 -2.976,3.937 0.839,0.774 2.156,1.407 3.554,2.481 2.067,1.586 3.254,2.613 4.137,4.195 1.414,2.531 2.535,5.938 1.02,6.82 -1.836,1.071 -4.625,0.332 -5.985,-1.14 -5.586,-6.188 -6.043,-16.574 -22.133,-13.574 0,0 -18.933,4.359 -3.664,25.664 4.313,5.726 -7.547,12.425 -14.515,20.964 -13.325,16.321 -51.336,77.95 -51.336,77.95 -3.953,5.699 -8.117,12.574 -11.75,18.144 -3.633,5.578 -4.824,17.485 3.519,16.332 3.961,-0.832 5.254,-2.617 9.672,-0.754 3.184,1.344 2.899,-3.418 0,-5.808 -1.84,-1.91 -1.84,-5.461 0.66,-7.379 3.258,-1.875 4.09,1.832 7.793,0.777 3.707,-1.058 6.332,-9.98 12.934,-11.883 1.801,-0.433 2.937,-0.308 3.359,0.868 0.957,2.656 -2.105,6.304 -1.371,9.55 1.106,-1.996 3.91,-4.074 7.688,-6.148 4.589,-2.527 7.257,-3.152 6.05,0.699 -1.363,4.359 -2.031,7.34 -2.031,7.34 -0.449,3.273 2.473,5.805 4.688,5.805 1.293,0 2.656,-1.145 3.547,-2.633 2.898,-5.27 1.515,-8.309 8.14,-10.395 9.899,-20.988 35.445,-47.875 45.637,-56.254 2.133,-1.754 5.961,-3.918 8.941,-5.05 -2.261,2.214 -5.875,5.402 -7.48,6.941 -26.793,25.691 -43.75,49.449 -43.305,54.512 7.668,3.203 8.86,10.644 11.094,9.527 1.113,-0.668 -2.426,-6.762 -1.789,-9.824 0.375,-1.785 2.16,-4.242 7,-4.168 -8.68,-8.656 13.394,-15.93 29.769,-15.559 5.914,-3.675 16.227,-9.898 28.582,-12.726 0,0 1.207,-5.907 5.063,-6.102 0,0 9.051,-14.008 21.422,-27.289 12.371,-13.277 26.355,-34.855 37.918,-46.277 z M 609.566,898.406 c -7.601,-5.402 -9.019,-10.332 -21.519,-16.703 -6.93,-3.531 -13.723,-6.426 -18.141,-4.226 -4.535,2.484 -3.121,10.664 -3.14,11.73 -0.016,0.914 0.097,2.238 0.14,2.918 3.375,1.688 8.231,0.633 9.606,4.824 1.148,3.5 0.859,7.453 1.601,11.125 1.45,3.067 5.852,4.547 6.719,7.899 -5.691,-3.653 -10.234,-9.215 -17.273,-8.914 -2.188,0.57 -0.719,3.367 -1.887,4.671 -1.426,0.567 -1.391,1.676 -1.613,2.704 0.578,-0.082 1.031,-0.094 1.066,-0.094 0.34,0 0.605,0.265 0.605,0.601 0,0.329 -0.265,0.622 -0.605,0.622 -0.336,0 -1.113,0.07 -1.824,0.281 -0.059,0.051 -0.074,0.09 -0.133,0.129 -0.133,1.179 0.453,2.785 -0.426,3.648 l -3.523,0.609 c 0.301,3.645 2.797,6.872 2.933,10.809 0.59,-0.719 2.786,-0.562 1.75,-2.031 -0.582,-0.59 -0.433,-1.617 -0.132,-2.207 -0.188,1.742 6.156,4.008 2.769,5.207 -1.449,0.273 -5.555,-0.668 -5.855,1.543 0,3.211 1.332,5.988 3.086,8.617 3.671,-3.074 8.632,-5.695 9.8,-10.676 1.305,-1.469 2.641,-3.363 4.543,-3.363 4.102,1.605 6.133,-2.484 10.086,-2.195 0,0.867 0.453,1.757 1.332,2.05 0.895,0.461 1.887,0 2.489,-0.746 0.445,-1.886 -0.735,-3.062 -1.618,-4.242 -1.468,-1.16 -3.218,-1.461 -5.121,-1.75 3.207,-2.199 6.004,1.317 9.074,2.047 1.45,0.293 2.93,-0.297 3.504,-1.758 1.332,-7.465 -1.894,-18.281 7.465,-21.965 1.321,-0.566 2.785,-0.718 4.242,-1.164 z M 555.02,724.055 c 7.293,-11.684 7.941,-12.133 11.886,-18.883 3.949,-6.75 20.324,-31.988 23.496,-37.117 3.172,-5.125 20.047,-33.742 30.965,-39.301 -8.387,-9.129 -4.367,-20.441 -18.211,-22.676 -8.008,-1.293 -30.445,-8.187 -38.199,4.793 -7.758,12.981 -11.285,33.738 -8.953,50.129 9.859,-15.324 16.93,-22.098 22.363,-25.223 -18.012,20.024 -15.781,24.203 -24.402,35.032 -3.469,4.363 -4.207,11.429 -4.629,16.773 -0.715,9.098 -0.566,18.293 -0.996,27.414 -0.25,4.934 0,10.168 -1.645,14.895 -0.64,1.804 -1.945,7.238 -2.343,9.125 -0.395,1.886 -0.196,4.367 -0.196,4.367 0,0 3.571,-7.645 10.864,-19.328 z m -3.149,140.207 c -1.66,-1.809 -2.68,-2.805 -3.547,-4.961 -1.996,-4.961 0,-12.406 5.11,-16.078 3.41,-2.45 4.554,-2.75 7.312,-3.555 -6.715,-1.805 -14.16,-11.48 -14.195,-16.598 -2.606,2.41 -3.289,7.153 -2.633,11.524 -1.848,-2.586 -5.957,-4.473 -8.453,-4.754 -0.863,2.191 -0.442,7.922 2.121,10.555 -1.012,1.742 -6.828,0.843 -9.516,-1.059 -0.586,3.508 0.703,6.266 4.246,8.441 -0.964,1.996 -3.128,0.551 -7.933,-0.074 3.062,1.5 7.722,4.004 12.676,7.184 8.414,5.394 14.812,9.375 14.812,9.375 z m 113.594,-1.946 c 6.305,-0.742 14.926,0.555 17.875,1.465 1.445,-2.465 -1.438,-6.664 -3.863,-5.769 1.031,-3.508 4.265,-8.051 3.687,-12.133 -3.066,1.148 -12.133,4.734 -12.133,4.734 2.199,-3.664 5.387,-10.105 4.231,-14.777 -3.668,2.773 -11.387,3.012 -14.465,5.352 1.461,-5.575 5.117,-13.622 0.289,-18.891 -4.52,3.223 -6.734,8.348 -10.527,12.008 0.726,-5.27 1.914,-13.465 -1.778,-18.313 -2.328,2.942 -12.363,6.824 -12.074,10.332 -1.023,0.313 -3.715,-10.754 -7.086,-12.804 -3.348,4.675 -6.215,11.261 -10.855,15.488 1.293,1.469 2.906,0.609 2.304,3.097 -1.316,3.172 -6.125,4.981 -11.414,7.149 0.785,1.648 1.34,2.457 3.024,4.859 4.293,6.125 6.972,11.793 7.992,14.731 1.676,4.847 2.238,6.429 2.625,9.949 5.461,-0.695 9.234,-1.566 15.91,-2.32 6.949,-0.789 17.168,-3.024 26.258,-4.157 z m 109.93,19.239 c 0.296,-2.11 -3.961,-7.137 -9.43,-8.364 -6.649,-1.488 -12.008,-0.195 -16.277,2.247 0.199,-4.727 8.039,-6.512 13.796,-5.422 -3.203,-4.391 -12.941,-7.43 -20.246,-7.145 -7.593,0.301 -12.703,2.582 -19.453,6.75 -0.691,-4.566 7.942,-8.437 14.094,-8.933 -12.219,-6.727 -25.899,-1.836 -27.59,-1.387 -3.375,0.89 -8.336,2.976 -10.976,5.66 -0.176,-3.547 4.625,-6.356 8.89,-7.348 -8.035,-3.773 -18.277,0.43 -22.316,7.129 13.207,3.836 23.277,7.356 36.695,10.692 12.949,-2.157 25.344,3.269 30.184,8.925 1.882,2.204 3.144,4.899 3.226,5.594 1.215,0.391 2.946,-0.07 4.141,-0.359 1.199,-0.293 14.082,-3.207 15.262,-8.039 z m -318.391,2.058 c 1.316,1.168 5.906,2.207 10.238,1.59 4.332,-0.621 12.09,-2.5 17.938,-6.613 11.855,-3.949 21.133,-12.129 33.199,-15.906 0.449,1.043 -1.168,1.921 -1.75,2.648 7.469,5.707 15.223,10.981 23.578,14.481 5.402,6.308 12.574,12.578 21.356,11.277 l 1.996,0.215 c 0,0 0.043,-2.024 0,-2.828 -0.25,-4.567 -2.633,-9.129 -5.219,-15.391 0,0 -7.289,-2.695 -10.828,-4.832 -2.867,-1.727 -28.102,-16.527 -28.102,-16.527 -7.168,-5.704 -10.726,0.675 -18.14,5.695 -8.653,4.543 -17.575,8.926 -25.04,15.953 0,1.012 2.192,0.438 1.168,1.605 -4.246,-0.441 -7.41,-1.914 -11.21,-3.085 -1.61,-0.743 -5.598,-2.075 -6.887,0.406 l 1.851,0.492 c 2.364,1.586 3.211,4.762 7.075,5.687 -2.809,2.711 -8.325,3.676 -12.332,3.942 z m 283.703,15.516 c -0.422,-4.531 -5.699,-5.539 -7.453,-9.199 l -2.484,-1.762 c 2.183,0.145 4.515,1.469 6.007,3.367 3.641,1.16 15.133,3.551 15.649,1.305 0.508,-2.227 -0.555,-4.289 -3.953,-6.719 -3.403,-2.43 -15.52,-7.613 -24.45,-6.16 -4.972,0.141 -9.652,-1.309 -14.339,-2.328 l -24.012,-7.031 c -8.32,-2.196 -18.059,-3.364 -27.067,-1.18 -13.304,2.484 -26.48,6.012 -40.542,5.133 -1.583,-0.071 -3.817,-1.317 -4.696,-3.227 1.469,0.305 3.664,1.02 5.133,0 -0.203,-1.82 -0.457,-11.879 -4.328,-15.676 -1.02,1.157 -1.567,3.028 -2.086,4.688 -0.516,1.664 -6.328,27.101 4.809,35.129 6.656,2.164 15.347,-1.887 17.55,-3.078 8.606,-4.661 23.293,-7.133 34.7,-11.551 4.968,0.59 9.793,2.203 14.914,2.793 l 34.402,4.535 c 6.148,-1.16 7.051,6.73 12.434,7.301 3.519,-0.137 5.718,2.511 8.496,4.101 0.496,0.446 1.316,0.301 1.316,-0.441 z m -350.75,86.484 29.941,38.917 c 10.551,-15.21 27.903,-16.28 45.106,-16.89 l 11.441,1.22 48.895,7.69 32.875,3.76 c 31.816,3.62 63.512,-1.36 93.672,-5.57 l 43.449,-7.1 c 18.414,-1.34 38.156,-0.91 50.691,12.83 l 2.395,2.7 27.695,-36.404 c -0.039,-0.02 -0.09,-0.043 -0.129,-0.059 -0.582,-0.273 -1.457,-0.652 -2.566,-1.105 -3.57,-1.293 -7.609,-2.766 -11.383,-4.282 -0.473,-0.168 -0.953,-0.336 -1.441,-0.504 l -0.469,0.11 -14.102,18.574 c -14.644,-8.297 -32.898,-9.496 -50.539,-8.297 l -25.363,3.934 -31.355,5.113 -33.481,3.93 c -20.062,1.65 -40.574,0.9 -60.051,-1.36 l -27.738,-3.922 -46.16,-6.945 c -17.805,-1.492 -35,0.617 -49.34,8.607 l -14.324,-18.63 c -1.86,0.359 -3.719,0.722 -5.66,1.117 -4.395,0.894 -8.332,1.711 -12.059,2.566 z m 454.781,3.539 c 2.328,3.567 4.52,7.848 6.797,13.068 l 4.551,10.45 -11.145,-2.36 c -8.593,-1.81 -18.957,-4.95 -31.671,-9.58 -1.77,-0.64 -4.114,-1.484 -6.762,-2.441 -8.75,-3.148 -17.055,-6.152 -22.965,-8.41 l -35.152,46.251 -5.528,-6.96 c -1.265,-1.62 -2.457,-3.15 -3.968,-4.49 -6.821,-6.49 -16.489,-9.52 -30.43,-9.52 -5.453,0 -10.891,0.46 -15.367,0.88 l -32.578,5.42 c -0.383,0.05 -26.438,3.93 -26.438,3.93 -18.434,2.7 -36.012,4.07 -52.242,4.07 -9.141,0 -17.844,-0.45 -25.871,-1.33 v -0.01 c -0.785,-0.08 -5.133,-0.59 -31.328,-3.63 -0.43,-0.07 -37.227,-5.75 -37.27,-5.75 -11.105,-1.98 -19.785,-2.9 -27.316,-2.9 -17.856,0 -29.719,5.36 -36.27,16.39 l -3.476,5.84 -38.508,-50.179 c -3.34,0.925 -6.66,1.957 -10.164,3.199 l -8.766,3.117 0.961,-9.254 c 0.504,-4.824 2.496,-9.234 5.531,-13.269 l -37.738,-49.184 3.828,-3.84 0.301,-0.234 c 16.758,-12.281 24.234,-31.059 24.234,-60.879 0,-8.402 -0.57,-16.938 -1.066,-23.43 l 0.07,-0.004 c -0.277,-1.148 -0.66,-3.402 -1.445,-8.078 l -7.496,-44.551 c -0.059,-0.468 -2.488,-18.691 -3.774,-28.304 -1.543,-14.09 -2.324,-27.907 -2.324,-41.063 0,-3.906 0.067,-7.695 0.203,-11.25 2.266,-88.875 55.418,-159.707 142.188,-189.476 l 0.015,0.047 c 0.719,-0.329 1.821,-0.739 3.481,-1.36 0,0 13.535,-5.058 13.64,-5.098 l 2.051,-0.871 c 25.594,-10.945 52.059,-22.261 73.301,-43.5 l 3.43,-3.445 3.539,3.941 0.824,0.899 c 0,0 0.508,0.586 0.914,1.043 26.102,23.18 56.676,35.418 91.024,47.914 62.3,21.926 85.14,49.738 101.832,70.066 l 0.46,0.567 c 25.715,30.011 41.692,78.164 41.692,125.668 0,1.16 -0.016,2.32 -0.039,3.437 0,0.051 0,0.106 -1.203,29.547 -0.055,0.469 -2.207,20.942 -3.336,31.719 -0.008,0.062 -0.024,0.207 -4.879,29.211 l -4.508,28.273 c -0.906,7.559 -1.367,14.739 -1.367,21.348 0,1.586 0.015,3.137 0.074,4.715 l -0.012,0.941 c 0,28.219 8.325,48.199 25.45,61.082 l 3.691,2.774 -9.441,12.421 c 2.91,2.969 4.492,5.754 5.574,8 1.777,3.684 2.094,10.45 -0.301,14.262 -0.078,0.125 -0.16,0.25 -0.246,0.371 8.652,6.387 17.867,20.754 20.488,25.774 l 7.336,14.039 c 0,0 -14.965,-5.973 -15.09,-6.024 z m -21.562,-64.211 c -0.004,0.02 -0.024,0.051 -0.039,0.063 0.015,-0.012 0.035,-0.043 0.039,-0.063 z m -0.039,0.063 c -0.489,0.648 -0.871,0.93 -1.254,0.992 0.383,-0.062 0.758,-0.332 1.254,-0.992"
         style="fill:#224984;fill-opacity:1;fill-rule:nonzero;stroke:none"
         id="path66" /><path
         d="m 244.305,624.047 -2.754,-0.008 0.683,-2.672 c 6.5,-25.426 -0.375,-50.137 -18.379,-66.097 l -5.683,-5.043 7.476,1.308 c 5.739,1.004 13.344,2.078 21.313,1.457 18.762,-1.179 31.984,-5.031 42.801,-12.289 -0.582,-2.855 -11.297,-55.879 -11.297,-55.879 -0.195,-0.84 -0.285,-1.668 -0.285,-2.457 0,-3.57 1.765,-6.676 3.59,-9.308 l 0.101,-0.141 0.109,-0.117 c 8.235,-8.664 18.711,-11.539 28.836,-14.336 l 0.852,-0.231 c 44.242,-10.32 90.937,-1.129 131.527,25.852 l 21.86,14.266 9.609,5.933 11.566,7.102 c 22.286,13.211 40.629,20.402 61.336,24.015 42.829,7.528 88.711,-1.589 122.766,-24.398 0.125,-0.074 4.453,-2.598 4.453,-2.598 -0.105,0.059 28.719,-18.824 28.719,-18.824 0.012,-0.031 17.879,-11.324 17.879,-11.324 39.566,-24.863 90.828,-32.238 133.773,-19.254 7.266,2.422 22.27,7.422 24.399,20.59 l 0.054,0.383 c 0,0 -10.828,56.316 -11.289,58.722 0.024,0.016 1.567,1.137 1.567,1.137 l -0.489,-0.383 c 18.079,10.113 41.77,13.641 63.348,9.422 l 7.817,-1.527 -5.985,5.254 c -18.027,15.847 -24.781,40.601 -18.066,66.222 l 0.703,2.672 -2.75,0.027 c -27.414,0.301 -52.957,-3.488 -75.945,-11.281 -11.418,-4.39 -28.555,-10.976 -33.614,-26.472 l -0.097,-0.317 -0.606,-44.914 c 0,-0.019 -0.086,-12.578 -0.117,-17.703 -26.695,0.559 -48.781,13.937 -67.422,26.586 0.008,-0.012 -6.504,4.504 -6.504,4.504 -0.043,0.039 -26.68,17.445 -26.68,17.445 -31.593,19.578 -62.898,31.223 -95.695,35.641 -56.148,7.34 -112.242,-6.364 -162.242,-39.637 -0.02,-0.004 -25.117,-17.074 -25.117,-17.074 -19.727,-12.969 -41.18,-25.582 -67.227,-25.879 0.024,3.351 0.301,59.465 0.301,59.465 -0.152,8.945 -7.016,17.226 -20.437,24.648 -24.637,11.965 -53.641,17.688 -88.758,17.512"
         style="fill:#224984;fill-opacity:1;fill-rule:nonzero;stroke:none"
         id="path68" /><path
         d="m 326.68,559.379 c 7.16,2.062 14.5,4.328 20.465,9.926 -0.012,-3.039 -0.133,-45.348 -0.133,-46.856 -15.574,0.434 -33.11,2.551 -46.278,14.391 -0.007,0.031 -0.558,0.746 -0.558,0.746 -1.457,1.883 -2.692,3.461 -2.692,5.422 0,0.699 0.157,1.453 0.528,2.269 3.82,7.086 11.386,9.161 18.687,11.161 l 5.949,1.753 c -0.019,-0.003 4.032,1.188 4.032,1.188"
         style="fill:#ffffff;fill-opacity:1;fill-rule:nonzero;stroke:none"
         id="path70" /><path
         d="m 810.527,566.832 c 7.153,-6.262 15.953,-8.883 24.536,-11.301 7.546,-2.113 15.351,-4.308 21.8,-9.082 1.969,-1.761 2.899,-3.293 2.899,-4.886 0,-0.711 -0.176,-1.418 -0.528,-2.176 -4.152,-7.899 -13.828,-11.821 -20.738,-14.078 -9.172,-2.575 -18.355,-3.879 -27.969,-4.063 0,1.531 0,42.758 0,45.586"
         style="fill:#ffffff;fill-opacity:1;fill-rule:nonzero;stroke:none"
         id="path72" /><path
         d="m 250.566,602.922 c 0,4.988 -0.566,10.058 -1.527,15.152 26.688,-1.066 57.402,-4.152 84.066,-18.558 6.657,-4.254 14.196,-10.102 14.196,-17.86 0,-0.207 0,-0.414 -0.012,-0.609 -1.25,-9.93 -11.285,-12.961 -20.144,-15.633 l -11.536,-3.543 c -9.425,-2.617 -19.058,-5.465 -23.402,-15.223 -15.18,9.118 -34.25,13.313 -56.762,12.461 9.778,11.629 15.121,27.168 15.121,43.813"
         style="fill:#ffffff;fill-opacity:1;fill-rule:nonzero;stroke:none"
         id="path74" /><path
         d="m 848.609,557.898 -0.941,0.356 -11.191,3.383 c -9.125,2.422 -17.731,4.711 -24.18,11.883 -1.18,1.699 -1.692,3.886 -1.692,6.066 0,1.957 0.415,3.883 1.09,5.418 8.387,12.906 22.731,17.41 36.586,21.758 l 3.653,1.16 c 17.027,4.629 35.933,7.101 57.64,7.617 -0.961,-5.496 -1.527,-10.879 -1.527,-16.051 0,-16.781 5.078,-31.539 14.637,-42.922 -22.043,0.868 -41.192,-3.222 -56.961,-12.132 -2.586,7.781 -10.559,10.968 -17.114,13.464"
         style="fill:#ffffff;fill-opacity:1;fill-rule:nonzero;stroke:none"
         id="path76" /><path
         d="m 416.723,538.426 38.793,24.98 c 46.996,29.879 97.539,41.699 150.222,35.114 30.395,-3.93 59.379,-14.25 88.586,-31.543 l 24.965,-15.622 25.543,-16.632 c 24.504,-16.649 54.316,-23.297 83.953,-18.711 11.961,2.629 25.317,5.75 34.313,16.605 0.527,-2.699 10.254,-53 10.254,-53 -1.434,-6.976 -9.079,-10.394 -15.223,-13.14 l -1.555,-0.7 C 812.066,451 758.051,459.844 715.676,488.902 c -0.008,0.012 -38.496,25.282 -38.496,25.282 -40.024,25.824 -87.887,35.101 -134.813,26.136 -23.012,-4.398 -45.531,-14.07 -70.902,-30.445 l -35.508,-23.043 c -34.73,-22.207 -75.449,-30.824 -114.652,-24.269 -12.008,2.32 -24.442,4.703 -33.946,13.48 -1.937,2.094 -2.929,3.977 -3.175,6.059 0.031,0 9.254,45.984 10.57,52.558 12.926,-14.238 31.594,-17.351 50.008,-18.347 23.832,-1.168 46.691,5.867 71.961,22.113"
         style="fill:#ffffff;fill-opacity:1;fill-rule:nonzero;stroke:none"
         id="path78" /><path
         d="m 484.262,545.102 c -0.836,-0.125 -5.157,-2.356 -6.11,-2.848 -0.136,0.738 -2.019,10.891 -2.214,11.918 l 0.269,-0.266 c 1.387,-1.812 8.02,-8.41 8.293,-8.679 z m 13.301,-3.797 -18.684,17.558 c -0.387,0.383 -1.66,1.696 -1.66,1.696 -0.145,0.277 -0.235,0.601 0.488,1.043 0.117,0.406 -0.234,1.14 -0.234,1.14 -0.438,0.137 -9.063,-4.418 -9.063,-4.418 -0.144,-0.414 0.242,-1.14 0.242,-1.14 1.332,0.23 1.418,0.05 1.45,-0.012 0.007,-0.02 0.421,-1.789 0.421,-1.789 0.028,-0.113 4.129,-26.16 4.129,-26.16 0.078,-0.633 0.118,-1.223 -0.289,-1.473 -0.113,-0.414 0.262,-1.16 0.262,-1.16 0.441,-0.133 7.254,3.461 7.254,3.461 l 0.273,0.144 -0.531,1.004 c -1.012,-0.133 -1.426,-0.051 -1.656,0.371 0,0.02 -0.235,0.914 -0.235,0.914 0,0.032 -0.839,5.051 -0.851,5.063 0.113,-0.176 9.035,4.512 9.133,4.555 0.008,-0.262 3.808,-3.809 3.808,-3.809 0.008,-0.004 0.586,-0.672 0.586,-0.672 0.012,-0.035 0.035,-0.074 0.035,-0.098 0,-0.101 -0.097,-0.238 -0.55,-0.554 -0.012,-0.047 -0.028,-0.098 -0.028,-0.149 0,-0.41 0.301,-0.984 0.301,-0.984 0.441,-0.133 7.449,3.562 7.449,3.562 0.133,0.434 -0.261,1.161 -0.261,1.161 -0.825,0 -1,-0.008 -1.789,0.746 z m 357.984,-57.371 c -0.391,0.226 -1.18,0.007 -1.18,0.007 -0.187,-0.91 -0.301,-1.168 -1.648,-1.511 0,0 -12.914,-3.325 -12.946,-3.34 0,0 0.032,0.039 0.032,0.101 0,0.903 -1.485,6.645 -1.711,7.477 0.562,0.152 6.926,1.789 6.926,1.789 1.335,0.34 1.554,0.207 1.781,-0.242 0.351,-0.164 1.152,0.047 1.152,0.047 0.227,0.379 -1.492,7.039 -1.492,7.039 -0.402,0.226 -1.191,0.008 -1.191,0.008 -0.196,-0.911 -0.301,-1.149 -1.629,-1.489 0,0 -7.164,-1.843 -7.223,-1.855 0.02,0.008 0.031,0.039 0.031,0.113 0,0.942 -1.543,6.918 -1.543,6.957 0.082,-0.289 11.957,2.789 11.957,2.789 1.336,0.328 1.543,0.192 1.782,-0.261 0.363,-0.157 1.156,0.062 1.156,0.062 0.222,0.383 -1.52,7.039 -1.52,7.039 -0.386,0.227 -1.172,0.008 -1.172,0.008 -0.187,-0.899 -0.308,-1.168 -1.625,-1.508 l -19.754,-5.117 c -0.226,-0.383 -0.035,-1.176 -0.035,-1.176 1.985,0.016 2.121,-0.258 2.297,-0.945 l 6.528,-25.176 c 0.171,-0.738 0.168,-1.012 -1.231,-1.555 -0.187,-0.367 0.004,-1.168 0.004,-1.168 0.383,-0.23 20.809,5.071 20.809,5.071 1.332,0.324 1.543,0.179 1.808,-0.352 0.352,-0.172 1.153,0.035 1.153,0.035 0.226,0.383 -1.516,7.153 -1.516,7.153 z m -37.078,2.257 c -0.035,-7.64 -2.496,-10.078 -10.188,-10.043 0,0 -3.336,0.008 -3.367,0.008 v 0.004 c 0.301,0.082 0.395,18.516 0.406,20.203 0.528,-0.008 3.051,-0.039 3.051,-0.039 7.641,-0.023 10.098,-2.465 10.098,-10 z m -7.871,15.661 -12.782,0.05 c -0.316,-0.308 -0.336,-1.129 -0.336,-1.129 1.258,-0.464 1.407,-0.714 1.379,-1.519 0,-0.012 -0.086,-25.957 -0.086,-25.957 0,-0.793 -0.152,-1.02 -1.168,-1.207 l -0.265,-1.106 c 0.316,-0.312 11.973,-0.363 11.973,-0.363 5.085,-0.023 9,1.281 11.628,3.887 2.637,2.613 3.977,6.535 3.997,11.652 0.031,9.781 -5.34,15.653 -14.34,15.692 z m -23.375,1.316 c 1.125,-0.766 1.199,-1.047 1.011,-1.793 l -4.14,-16.75 c -0.942,-3.828 -3.692,-5.484 -7.504,-4.543 -1.902,0.465 -3.262,1.367 -4.055,2.672 -0.781,1.293 -0.941,2.973 -0.48,4.855 l 4.133,16.739 c 0.187,0.754 0.382,0.972 1.39,0.886 0.328,0.239 0.527,1.039 0.527,1.039 -0.222,0.383 -8.843,2.497 -8.843,2.497 l -0.313,0.078 -0.078,-0.321 -0.176,-0.797 c 1.383,-0.824 1.407,-1.117 1.211,-1.839 l -4.105,-16.625 c -1.871,-7.653 1.242,-12.52 9.219,-14.473 4.066,-1.008 7.418,-0.746 9.937,0.785 2.398,1.438 4.07,4.039 4.977,7.723 l 4.109,16.625 c 0.187,0.746 0.352,0.984 1.5,0.863 0.336,0.242 0.523,1.031 0.523,1.031 -0.222,0.383 -8.25,2.371 -8.25,2.371 -0.375,-0.23 -0.593,-1.023 -0.593,-1.023 z m -32.618,4.312 c -0.621,-2.304 -1.867,-11.496 -1.906,-11.859 l -0.238,0.109 c -0.625,0.602 -5.023,2.715 -5.973,3.161 0.496,0.55 7.278,7.972 8.168,8.933 z m -1.917,7.965 c 0.98,-0.91 0.89,-1.086 0.855,-1.172 l -1.168,-1.406 c -0.078,-0.086 -18.383,-19.008 -18.383,-19.008 -0.437,-0.433 -0.894,-0.851 -1.355,-0.675 -0.407,-0.164 -0.746,-0.895 -0.746,-0.895 0.156,-0.426 7.109,-3.695 7.109,-3.695 l 0.301,-0.129 0.457,1.027 c -0.52,0.528 -0.754,0.867 -0.754,1.192 0,0.113 0.031,0.226 0.082,0.339 0,0.012 0.578,0.754 0.578,0.754 0.02,0.02 3.5,3.649 3.527,3.68 0,-0.223 9.071,-4.473 9.122,-4.488 -0.204,-0.02 -0.766,-5.352 -0.766,-5.352 0,-0.031 -0.156,-0.89 -0.156,-0.89 -0.047,-0.102 -0.082,-0.176 -0.864,0.043 -0.359,-0.168 -0.718,-0.891 -0.718,-0.891 0.152,-0.426 7.339,-3.809 7.339,-3.809 0.418,0.153 0.758,0.891 0.758,0.891 -0.496,0.664 -0.613,0.809 -0.488,1.863 0.012,0.008 2.746,25.489 2.746,25.489 l 0.379,2.371 c 0.086,0.187 0.262,0.546 1.117,0.207 0.399,0.152 0.75,0.922 0.75,0.922 -0.148,0.425 -8.957,4.531 -8.957,4.531 -0.414,-0.153 -0.765,-0.899 -0.765,-0.899 z m -20.977,-14.636 c -1.055,-0.801 -1.332,-0.809 -2.418,-0.086 0,0 -10.684,7 -10.707,7.011 0.363,0.016 12.91,19.118 12.91,19.118 0.426,0.644 0.641,0.828 2.07,0.082 0.414,0.105 0.852,0.789 0.852,0.789 -0.078,0.437 -8.055,5.66 -8.055,5.66 -0.437,-0.09 -0.902,-0.762 -0.902,-0.762 1.152,-1.328 1.055,-1.598 0.641,-2.238 l -14.235,-21.699 c -0.394,-0.633 -0.64,-0.805 -1.762,-0.246 -0.402,-0.114 -0.867,-0.79 -0.867,-0.79 0.102,-0.453 17.039,-11.543 17.039,-11.543 1.133,-0.742 1.164,-1.023 0.946,-1.57 0.121,-0.383 0.797,-0.84 0.797,-0.84 0.445,0.102 4.468,6.231 4.468,6.231 -0.101,0.433 -0.777,0.883 -0.777,0.883 z m -36.477,18.769 14.153,22.637 c 0.258,0.426 0.566,0.601 1.273,0.207 0.422,0.105 0.867,0.801 0.867,0.801 -0.105,0.433 -8.75,5.843 -8.75,5.843 -0.441,-0.101 -0.879,-0.796 -0.879,-0.796 0.293,-0.528 0.387,-0.797 0.387,-0.981 0,-0.117 -0.035,-0.195 -0.097,-0.293 -0.258,-0.383 -3.344,-2.547 -6.614,-4.832 0,0 -7.043,-5.008 -8.136,-5.785 0.031,0.133 0.054,0.289 0.082,0.441 0.601,1.731 1.503,6.836 1.503,6.836 0.704,4.188 1.645,9.918 1.934,10.414 0.09,0.141 0.227,0.258 0.867,0.145 0.324,0.144 0.75,0.82 0.75,0.82 -0.097,0.43 -8.824,5.918 -8.824,5.918 -0.445,-0.101 -0.867,-0.789 -0.867,-0.789 0.66,-0.867 0.633,-1.187 0.371,-1.621 l -14.141,-22.629 c -0.308,-0.48 -0.64,-0.555 -1.179,-0.254 -0.426,-0.109 -0.86,-0.816 -0.86,-0.816 0.106,-0.434 6.832,-4.614 6.832,-4.614 l 0.278,-0.175 0.574,0.937 c -0.563,0.633 -0.738,0.985 -0.738,1.262 0,0.176 0.074,0.324 0.175,0.476 0,0 9.703,15.54 11.024,17.653 -0.059,-0.188 -0.078,-0.383 -0.121,-0.57 -1.004,-3.387 -3.336,-14.903 -3.336,-14.903 l -1.496,-8.441 c 0.14,-0.328 0.886,-0.785 0.886,-0.785 0.371,0.011 8.047,5.527 8.047,5.527 0,0 10.512,7.809 12.324,9.16 l -0.492,-0.793 c -2.722,-3.789 -10.879,-16.824 -10.879,-16.824 -0.234,-0.383 -0.488,-0.613 -1.367,-0.137 -0.41,-0.113 -0.859,-0.777 -0.859,-0.777 0.109,-0.442 7.019,-4.774 7.019,-4.774 0.442,0.106 0.879,0.801 0.879,0.801 -0.933,1.024 -0.801,1.375 -0.59,1.711 z m -32.367,42.289 c -0.535,-2.301 -1.433,-11.547 -1.457,-11.929 l -0.25,0.105 c -0.68,0.59 -5.113,2.512 -6.062,2.926 0.492,0.562 6.953,8.23 7.797,9.23 z m 3.75,-24.515 1.844,26.285 0.199,1.613 c 0.09,0.199 0.254,0.598 1.117,0.277 0.403,0.168 0.715,0.926 0.715,0.926 -0.176,0.41 -9.121,4.211 -9.121,4.211 -0.414,-0.168 -0.715,-0.934 -0.715,-0.934 0.805,-0.691 0.922,-0.953 0.922,-1.074 0,-0.031 -0.004,-0.054 -0.004,-0.066 l -1.191,-1.485 c -0.039,-0.031 -17.606,-19.652 -17.606,-19.652 -0.433,-0.465 -0.851,-0.871 -1.328,-0.723 -0.39,-0.187 -0.691,-0.925 -0.691,-0.925 0.176,-0.41 7.238,-3.41 7.238,-3.41 l 0.289,-0.118 0.442,1.028 c -0.668,0.554 -0.817,0.957 -0.817,1.211 0,0.144 0.035,0.246 0.063,0.297 l 0.55,0.765 c 0.04,0.02 3.375,3.813 3.387,3.836 0.016,-0.219 9.235,-4.137 9.285,-4.156 -0.187,-0.02 -0.539,-5.363 -0.539,-5.363 -0.011,-0.028 -0.148,-0.907 -0.148,-0.907 -0.051,-0.093 -0.09,-0.187 -0.84,0.016 -0.367,-0.184 -0.691,-0.93 -0.691,-0.93 0.164,-0.414 7.457,-3.508 7.457,-3.508 0.414,0.172 0.746,0.922 0.746,0.922 -0.528,0.653 -0.653,0.778 -0.563,1.864 z m -24.492,10.984 c 0.477,-0.137 1.055,0.238 1.055,0.238 0.125,0.391 -2.922,7.801 -2.922,7.801 -0.317,0.199 -1.035,0.16 -1.035,0.16 -0.301,-0.355 -0.383,-1.453 -0.383,-1.453 0,-0.027 -1.371,-1.539 -1.371,-1.539 -1.442,-0.813 -3.449,-1.016 -5.25,-0.5 -4.785,1.305 -7.008,6.254 -5.438,12.012 1.039,3.847 2.672,6.433 4.817,7.64 1.718,0.981 3.859,1.129 6.343,0.442 1.711,-0.473 3.243,-1.574 3.997,-2.907 l 0.386,-2.183 -0.125,-0.766 0.453,-0.343 c 0.426,0.019 5.95,5.742 5.95,5.742 l 0.636,0.652 -1.14,0.223 -1.18,-0.157 -0.941,0.848 -1.149,1.168 c -1.523,1.469 -3.328,2.473 -5.523,3.066 -3.942,1.098 -7.946,0.661 -11.258,-1.23 -3.586,-2.039 -6.18,-5.676 -7.496,-10.5 -2.426,-8.902 1.539,-16.668 9.64,-18.891 5.196,-1.41 8.164,-0.086 9.926,0.688 l 1.418,0.43 c 0.227,-0.071 0.442,-0.293 0.59,-0.641 z m -29.109,26.125 c 0.422,0.074 5.648,6.637 5.648,6.637 l -0.254,0.191 v 0.008 l -0.023,0.027 -0.625,0.5 c -0.367,-0.332 -0.668,-0.5 -1.164,-0.433 l -1.336,0.699 -1.504,0.902 c -1.945,1.102 -4.254,1.832 -6.852,2.184 -8.269,1.101 -11.867,-3.391 -12.437,-7.567 -0.848,-6.375 5.148,-8.57 9.965,-10.351 3.675,-1.356 6.851,-2.524 6.519,-5.02 l -1.316,-2.496 c -1.176,-0.894 -3.207,-1.16 -6.032,-0.789 -2.433,0.332 -5.757,1.625 -6.91,3.137 l -0.39,1.16 0.074,0.758 -0.766,0.453 c -0.429,-0.09 -4.855,-6.781 -4.855,-6.781 l -0.16,-0.246 0.789,-0.602 c 0.488,0.094 1.242,0.621 1.254,0.621 0,-0.008 1.593,-0.785 1.593,-0.785 l 1.606,-0.93 c 0.012,0 6.762,-2.226 6.762,-2.226 5.886,-0.782 9.406,0.785 11.324,2.254 1.914,1.468 3.156,3.543 3.457,5.832 0.953,7.179 -5.281,9.449 -10.289,11.289 -3.449,1.273 -6.422,2.363 -6.114,4.66 l 1.094,2.039 c 0.844,0.633 2.059,0.852 3.629,0.633 4.121,-0.567 5.738,-2.309 6.149,-2.836 l 0.449,-1.192 c -0.113,-0.589 -0.188,-0.972 -0.188,-0.972 0.157,-0.309 0.903,-0.758 0.903,-0.758 z m -26.641,-13.406 h -13.402 c 0,0 0.285,7.164 0.3,7.758 0.563,0 7.161,0 7.161,0 1.379,0 1.57,-0.211 1.656,-0.676 l 1.129,-0.25 0.328,7.187 -1.145,0.317 c -0.414,-0.836 -0.582,-1.055 -1.968,-1.055 h -7.461 l 0.308,7.273 12.285,-0.32 c 1.368,0 1.543,-0.191 1.641,-0.687 l 1.145,-0.25 0.312,7.207 -1.129,0.312 c -0.426,-0.84 -0.597,-1.047 -1.969,-1.047 h -20.421 l -0.321,-1.14 c 1.996,-0.493 1.996,-0.813 1.996,-1.512 v -25.996 c 0,-0.762 -0.074,-1.031 -1.605,-1.219 l -0.277,-1.125 21.437,-0.316 c 1.391,0 1.547,-0.207 1.66,-0.782 l 1.129,-0.261 0.328,7.3 -1.14,0.317 c -0.43,-0.836 -0.586,-1.035 -1.977,-1.035 z m -34.625,12.383 c -0.652,-0.883 -1.883,-1.442 -3.648,-1.688 0,0 -6.551,-0.93 -6.594,-0.941 0.031,0.011 0.043,0.113 0.043,0.308 0,1.348 -0.692,6.348 -0.805,7.184 0.567,0.074 6.301,0.89 6.301,0.89 3.187,0.438 4.891,-0.566 5.246,-3.07 z m 7.867,-14.403 -0.629,0.934 c 0,0 -5.621,8 -5.707,8.14 0.125,0.059 0.227,0.141 0.352,0.204 3.797,1.222 5.633,4.578 4.996,9.175 -0.754,5.379 -5.246,8.176 -11.707,7.278 l -14.418,-2.051 c -0.262,-0.352 -0.152,-1.172 -0.152,-1.172 1.308,-0.281 1.484,-0.496 1.589,-1.301 l 3.645,-25.715 c 0.09,-0.839 -0.039,-1.062 -0.852,-1.336 -0.203,-0.336 -0.101,-1.144 -0.101,-1.144 0.363,-0.274 8.781,0.914 8.781,0.914 l 0.309,0.043 -0.145,1.105 c -1.332,0.313 -1.512,0.539 -1.594,1.305 0,0 -1.441,10.149 -1.457,10.242 0.067,-0.293 4.957,0.41 4.973,0.41 v 0 c 0,-0.277 5.793,-8.406 5.793,-8.406 l 0.879,-1.551 v -0.054 c 0,-0.125 -0.086,-0.352 -0.805,-0.516 -0.125,-0.187 -0.152,-0.496 -0.152,-0.746 0,-0.23 0.027,-0.395 0.027,-0.395 0.352,-0.277 8.887,0.915 8.887,0.915 0.269,0.359 0.16,1.167 0.16,1.167 -1.129,0.29 -1.504,0.79 -2.672,2.555 z m -31.594,1.274 c -0.347,0.004 -0.968,-0.411 -0.968,-0.411 -0.082,-0.457 0.449,-1.449 0.449,-1.449 0.008,-0.011 -0.309,-1.976 -0.309,-1.976 -0.761,-1.453 -2.418,-2.746 -4.215,-3.305 -2.07,-0.613 -4.152,-0.426 -6.007,0.566 -2.297,1.227 -4.075,3.614 -5.008,6.723 -1.168,3.809 -1.18,6.852 -0.012,9.035 0.942,1.774 2.621,3.012 5.156,3.778 2.746,0.851 5.766,-0.051 6.325,-1.872 l 0.062,-0.199 0.324,-0.609 0.559,-0.043 c 0.348,0.238 1.996,8.055 1.996,8.055 l 0.184,0.894 -1.118,-0.433 -0.918,-0.762 c -0.011,-0.016 -1.308,0.23 -1.308,0.23 l -1.527,0.371 c -2.094,0.418 -4.157,0.301 -6.325,-0.363 -7.136,-2.184 -12.871,-9.199 -9.586,-19.969 2.7,-8.84 10.215,-13.293 18.27,-10.836 5.152,1.555 6.953,4.262 8.043,5.875 l 0.98,1.125 c 0.211,0.071 0.5,-0.023 0.852,-0.222 0.465,0.136 0.734,0.789 0.734,0.789 -0.105,0.375 -6.633,5.008 -6.633,5.008 z m -73.843,-25.86 c -0.004,0 -5.563,-3.609 -5.614,-3.644 0.008,0.011 0.012,0.011 0.012,0.023 0,0.473 -3.363,5.727 -3.84,6.457 0.485,0.32 5.348,3.488 5.348,3.488 2.695,1.719 4.668,1.532 6.035,-0.589 0.012,0 0.652,-2.661 0.652,-2.661 -0.226,-1.074 -1.093,-2.097 -2.593,-3.074 z m 15.816,-6.707 -0.992,0.61 -8.594,4.949 c 0.086,0.097 0.133,0.207 0.215,0.308 2.93,2.704 3.199,6.563 0.676,10.477 -2.961,4.566 -8.192,5.199 -13.664,1.652 l -12.207,-7.902 c -0.106,-0.438 0.312,-1.117 0.312,-1.117 1.332,0.289 1.582,0.164 2.008,-0.5 l 14.129,-21.824 c 0.449,-0.711 0.414,-0.973 -0.219,-1.551 -0.047,-0.41 0.406,-1.098 0.406,-1.098 0.426,-0.101 7.555,4.508 7.555,4.508 l 0.274,0.176 -0.625,0.961 c -1.293,-0.289 -1.532,-0.168 -1.969,0.519 0,0 -5.598,8.59 -5.641,8.68 0.188,-0.223 4.32,2.437 4.332,2.449 0,-0.187 8.809,-5.199 8.809,-5.199 l 1.465,-1.035 c 0.015,-0.02 0.043,-0.071 0.043,-0.137 0,-0.141 -0.09,-0.363 -0.551,-0.723 v -0.101 c 0,-0.414 0.375,-1.008 0.375,-1.008 0.437,-0.09 7.691,4.609 7.691,4.609 0.086,0.446 -0.363,1.11 -0.363,1.11 -1.133,-0.211 -1.672,0.101 -3.465,1.187 z m -26.211,-13.953 c 0.016,-0.187 0.028,-0.355 0.028,-0.492 0,-0.567 -0.208,-0.856 -1.129,-1.445 0,0 -11.18,-7.235 -11.231,-7.266 0,0 0.012,0 0.012,0.027 0,0.465 -3.488,5.883 -3.965,6.625 0.484,0.313 5.98,3.887 5.98,3.887 1.161,0.742 1.422,0.68 1.786,0.328 0.39,-0.031 1.074,0.414 1.074,0.414 0.094,0.446 -3.645,6.211 -3.645,6.211 -0.453,0.086 -1.117,-0.363 -1.117,-0.363 0.024,-0.203 0.039,-0.36 0.039,-0.504 0,-0.582 -0.238,-0.871 -1.133,-1.441 0,0 -6.222,-4.004 -6.257,-4.028 0.023,0.004 0.023,0.004 0.023,0.024 0,0.504 -3.684,6.168 -3.699,6.199 0.176,-0.25 10.465,6.398 10.465,6.398 1.164,0.766 1.414,0.703 1.781,0.352 0.383,-0.051 1.09,0.402 1.09,0.402 0.086,0.438 -3.653,6.203 -3.653,6.203 -0.445,0.106 -1.129,-0.343 -1.129,-0.343 0.102,-0.942 0.083,-1.223 -1.066,-1.965 l -17.137,-11.067 c -0.101,-0.445 0.336,-1.125 0.336,-1.125 1.934,0.668 2.11,0.391 2.512,-0.187 l 14.09,-21.813 c 0.414,-0.636 0.5,-0.902 -0.684,-1.875 -0.058,-0.418 0.383,-1.086 0.383,-1.086 0.438,-0.097 18.152,11.352 18.152,11.352 1.168,0.75 1.407,0.672 1.797,0.238 0.407,-0.058 1.117,0.387 1.117,0.387 0.086,0.441 -3.714,6.312 -3.714,6.312 -0.426,0.086 -1.106,-0.359 -1.106,-0.359 z m -32.18,-24.008 c 0,0 -9.664,21.157 -9.707,21.262 0.145,-0.246 6.204,2.504 6.204,2.504 1.179,0.539 1.457,0.5 1.957,-0.277 0.39,-0.114 1.136,0.226 1.136,0.226 0.157,0.414 -2.859,7.039 -2.859,7.039 -0.422,0.156 -1.168,-0.176 -1.168,-0.176 -0.035,-0.992 -0.168,-1.238 -1.359,-1.789 l -18.012,-8.187 c -1.27,-0.582 -1.512,-0.461 -1.859,0.023 -0.383,0.102 -1.118,-0.234 -1.118,-0.234 -0.156,-0.414 2.852,-7.055 2.852,-7.055 0.414,-0.16 1.172,0.184 1.172,0.184 -0.012,0.183 -0.024,0.344 -0.024,0.484 0,0.863 0.262,1.117 1.258,1.567 0,0 6.332,2.886 6.356,2.89 0,0 0,0 0,-0.015 0,-0.715 9.273,-21.125 9.273,-21.125 0.145,-0.301 0.219,-0.528 0.219,-0.715 0,-0.301 -0.184,-0.489 -0.528,-0.746 -0.003,-0.043 -0.019,-0.106 -0.019,-0.164 0,-0.407 0.254,-0.977 0.254,-0.977 0.426,-0.164 8.047,3.316 8.047,3.316 l 0.297,0.145 -0.493,1.031 c -1.328,-0.101 -1.554,0.063 -1.879,0.789 z m -36.437,5.043 c -3.703,0.031 -6.883,0.063 -7.363,2.336 -0.43,2.074 0.828,3.559 3.562,4.141 4.598,0.972 7.352,-0.508 7.582,-1.586 l 0.11,-0.703 c 0.289,-0.535 1.164,-0.699 1.164,-0.699 0.367,0.203 3.09,8.164 3.09,8.164 l 0.367,1.086 -1.465,-0.692 -0.961,-0.808 -1.488,0.207 -1.723,0.335 c -2.191,0.399 -4.625,0.317 -7.23,-0.23 -8.18,-1.758 -10.047,-7.207 -9.172,-11.348 1.332,-6.273 7.73,-6.347 12.875,-6.398 3.933,-0.051 7.32,-0.09 7.847,-2.551 0,-0.015 -0.394,-2.797 -0.394,-2.797 -0.805,-1.242 -2.621,-2.168 -5.414,-2.773 -2.43,-0.5 -6.016,-0.395 -7.61,0.652 l -0.742,0.942 -0.187,0.761 -0.864,0.176 c -0.379,-0.234 -2.308,-8.023 -2.308,-8.023 0,0 0.199,-0.039 0.312,-0.059 v -0.019 l 0.633,-0.239 c 0.043,0.078 0.074,0.071 0.117,0.141 0.102,-0.016 0.305,-0.043 0.305,-0.043 0.187,0.355 0.305,0.562 0.449,0.582 0.008,0.012 1.844,-0.168 1.844,-0.168 l 1.797,-0.336 c 0.012,0 7.094,0.164 7.094,0.164 9.152,1.945 12.253,7.891 11.253,12.598 -1.503,7.093 -8.156,7.144 -13.48,7.187 z m -27.41,-15.441 c -1.34,-1.27 -3.106,-1.871 -5.227,-1.805 -5.035,0.164 -7.687,3.973 -7.48,10.703 0.117,3.821 1.152,6.727 2.972,8.414 1.325,1.246 3.079,1.852 5.188,1.77 2.121,-0.07 3.84,-0.777 5.094,-2.121 1.695,-1.813 2.523,-4.781 2.394,-8.571 -0.109,-3.793 -1.129,-6.699 -2.941,-8.39 z m -4.36,24.613 c -3.902,0.121 -7.328,-1.09 -9.929,-3.523 -2.973,-2.793 -4.711,-7.047 -4.867,-11.977 -0.321,-9.555 5.211,-16.148 13.75,-16.437 3.894,-0.125 7.32,1.086 9.918,3.519 2.988,2.793 4.718,7.047 4.878,11.977 0.165,4.937 -1.289,9.304 -4.089,12.289 -2.426,2.586 -5.77,4.015 -9.661,4.152 z m -29.371,-9.598 c 0,0 -5.41,0.797 -5.464,0.805 0.289,0.031 1.265,6.531 1.398,7.406 0.559,-0.086 5.164,-0.769 5.164,-0.769 2.316,-0.332 3.699,-0.922 4.387,-1.824 l 0.461,-2.707 c -0.407,-2.707 -2.02,-3.5 -5.946,-2.911 z m 2.922,12.75 -13.773,2.032 c -0.352,-0.266 -0.473,-1.055 -0.473,-1.055 1.324,-0.676 1.395,-0.977 1.293,-1.738 l -3.808,-25.719 c -0.114,-0.754 -0.25,-1.012 -1.391,-0.98 -0.328,-0.282 -0.445,-1.106 -0.445,-1.106 0.261,-0.363 9.031,-1.648 9.031,-1.648 l 0.308,-0.055 0.176,1.133 c -1.066,0.535 -1.312,0.816 -1.312,1.304 0,0.125 0.008,0.258 0.031,0.411 0,0 1.508,10.156 1.512,10.238 0.035,-0.297 6.156,-1.199 6.156,-1.199 7.918,-1.18 11.441,3.156 12.117,7.601 0.641,4.457 -1.484,9.625 -9.422,10.781"
         style="fill:#224984;fill-opacity:1;fill-rule:nonzero;stroke:none"
         id="path80" /><path
         d="m 418.941,811.273 -11.429,4.102 5.937,-11.117 -10.801,-7.629 12.176,-2.727 -0.922,-12.351 10.071,8.379 9.297,-8.379 -0.625,12.945 c 0.007,0 12.8,1.078 12.8,1.078 l -10.652,8.215 6.078,10.984 -12.496,-3.66 -4.703,11.895 -4.731,-11.735"
         style="fill:#ffffff;fill-opacity:1;fill-rule:nonzero;stroke:none"
         id="path82" /><path
         d="m 492.227,792.383 -11.43,3.797 5.933,-10.961 -10.816,-7.485 12.508,-2.726 -1.231,-12.512 9.895,8.406 9.598,-8.406 -0.77,12.949 12.816,1.086 -10.503,8.063 5.929,11.129 -12.496,-3.34 -4.574,11.555 -4.859,-11.555"
         style="fill:#ffffff;fill-opacity:1;fill-rule:nonzero;stroke:none"
         id="path84" /><path
         d="m 410.105,729.305 4.551,-11.727 12.516,3.504 -5.969,-10.836 10.539,-8.211 c -0.015,0 -12.801,-1.078 -12.801,-1.078 l 0.614,-13.102 -9.297,8.54 -10.059,-8.54 1.055,12.5 -12.176,2.747 10.672,7.453 -5.797,10.812 11.41,-3.789 4.742,11.727"
         style="fill:#ffffff;fill-opacity:1;fill-rule:nonzero;stroke:none"
         id="path86" /><path
         d="M 496.777,723.82 500.453,713 h 11.258 l -9.129,-7.012 3.5,-11.129 -9.305,6.707 -9.269,-6.707 3.324,11.129 -9.121,6.856 10.973,0.156 4.093,10.82"
         style="fill:#ffffff;fill-opacity:1;fill-rule:nonzero;stroke:none"
         id="path88" /><path
         d="m 491.762,636.215 -11.446,3.953 5.797,-10.961 -10.812,-7.457 12.34,-2.75 -0.911,-12.504 9.907,8.555 9.445,-8.696 -0.91,12.797 12.949,1.532 -10.516,8.214 5.95,10.825 -12.348,-3.508 -4.57,11.883 -4.875,-11.883"
         style="fill:#ffffff;fill-opacity:1;fill-rule:nonzero;stroke:none"
         id="path90" /><path
         d="m 469.766,868.195 c -3.657,0.035 -9.403,-5.105 -11.266,-7.066 7.457,2.578 10.266,1.176 11.973,3.414 0.097,1.184 0.347,2.949 -0.707,3.652"
         style="fill:#ffffff;fill-opacity:1;fill-rule:nonzero;stroke:none"
         id="path92" /><path
         d="m 474.418,866.199 c -0.891,-4.722 2.336,-9.351 6.059,-11.574 l 0.679,3.586 c -0.527,3.355 -4.066,6.445 -6.738,7.988"
         style="fill:#ffffff;fill-opacity:1;fill-rule:nonzero;stroke:none"
         id="path94" /><path
         d="m 472.355,857.25 c -0.402,-1.324 -1.57,-3.016 -1.242,-4.469 0.524,-2.636 4.688,-3.636 5.973,-7.57 2.269,3.629 -0.746,10.992 -4.731,12.039"
         style="fill:#ffffff;fill-opacity:1;fill-rule:nonzero;stroke:none"
         id="path96" /><path
         d="m 469.391,849.453 -1.828,-3.219 c -3.043,-4.64 2.539,-8.293 2.48,-11.222 1.691,1.804 3.574,6.64 2.531,9.972 -0.469,1.75 -1.547,3.329 -3.183,4.469"
         style="fill:#ffffff;fill-opacity:1;fill-rule:nonzero;stroke:none"
         id="path98" /><path
         d="m 458.156,848.734 c -2.011,-0.785 -6.918,-4.011 -9.422,-3.664 1.231,-1.558 6.645,-1.242 8.575,-1.48 3.367,-0.199 5.656,3.621 7.347,6.305 l -6.5,-1.161"
         style="fill:#ffffff;fill-opacity:1;fill-rule:nonzero;stroke:none"
         id="path100" /><path
         d="m 463.492,840.609 c -6.644,-1.632 -2.441,-9.433 -8.062,-13.937 3.867,0.699 5.539,0.75 7.968,5.375 1.102,2.226 1.61,6.285 0.094,8.562"
         style="fill:#ffffff;fill-opacity:1;fill-rule:nonzero;stroke:none"
         id="path102" /><path
         d="m 411.781,855.383 c -1.273,-5.07 -0.086,-6.211 2.328,-9.332 -1.171,7.129 7.2,10.105 3.375,15.762 -2.687,-0.7 -5.031,-4.036 -5.703,-6.43"
         style="fill:#ffffff;fill-opacity:1;fill-rule:nonzero;stroke:none"
         id="path104" /><path
         d="m 439.957,835.738 c 0.246,-1.582 6.574,-1.199 9.492,0.082 1.469,0.325 6.41,2.223 6.93,4 -11.453,2.606 -7.371,-1.64 -16.422,-4.082"
         style="fill:#ffffff;fill-opacity:1;fill-rule:nonzero;stroke:none"
         id="path106" /><path
         d="m 453.453,852.309 c 0.524,-1.496 6.68,-0.024 9.352,1.761 1.367,0.59 5.871,3.321 6.086,5.157 -11.735,0.539 -6.977,-2.911 -15.438,-6.918"
         style="fill:#ffffff;fill-opacity:1;fill-rule:nonzero;stroke:none"
         id="path108" /><path
         d="m 415.477,867.555 c -1.664,0.769 -6.356,-1.625 -7.575,-2.496 -2.91,-1.329 -7.414,-5.801 -6.398,-7.039 7.848,5.117 8.293,-0.743 13.973,9.535"
         style="fill:#ffffff;fill-opacity:1;fill-rule:nonzero;stroke:none"
         id="path110" /><path
         d="m 431.238,887.531 c 3.973,-1.109 5.766,-3.468 8.407,-3.847 3.097,-0.129 4.199,0.785 4.789,1.918 -1.243,3.921 -9.157,3.503 -13.196,1.929"
         style="fill:#ffffff;fill-opacity:1;fill-rule:nonzero;stroke:none"
         id="path112" /><path
         d="m 449.59,869.941 c -0.309,4.129 1.316,6.602 0.769,9.215 -0.918,2.977 -2.136,3.707 -3.406,3.86 -3.265,-2.504 -0.223,-9.786 2.637,-13.075"
         style="fill:#ffffff;fill-opacity:1;fill-rule:nonzero;stroke:none"
         id="path114" /><path
         d="m 430.68,884.184 c -3.309,1.164 -9.055,-1.215 -10.926,-2.832 4.25,0.418 6.926,-4.313 11.988,-2.235 l 3.25,1.711 c -1.051,1.676 -2.578,2.793 -4.312,3.356"
         style="fill:#ffffff;fill-opacity:1;fill-rule:nonzero;stroke:none"
         id="path116" /><path
         d="m 437.219,875.871 c -1.059,-3.332 1.488,-9.016 3.187,-10.844 -0.551,4.246 4.094,7.067 1.86,12.067 l -1.836,3.199 c -1.629,-1.102 -2.715,-2.684 -3.211,-4.422"
         style="fill:#ffffff;fill-opacity:1;fill-rule:nonzero;stroke:none"
         id="path118" /><path
         d="m 453.801,832.363 -3.68,-0.207 c -5.418,-0.777 -5.312,-6.207 -9.18,-8.023 2.438,-0.465 8.606,0.453 10.844,3.137 1.223,1.343 1.965,3.109 2.016,5.093"
         style="fill:#ffffff;fill-opacity:1;fill-rule:nonzero;stroke:none"
         id="path120" /><path
         d="m 416.566,877.09 c -4.937,-1.774 -5.207,-3.414 -6.453,-7.149 5.27,4.942 12.399,-0.3 14.938,6.028 -2.047,1.844 -6.129,1.894 -8.485,1.121"
         style="fill:#ffffff;fill-opacity:1;fill-rule:nonzero;stroke:none"
         id="path122" /><path
         d="m 428.02,867.473 c 0.437,-5.215 1.953,-5.918 5.226,-8.071 -3.394,6.348 3.52,11.907 -1.965,15.965 -2.308,-1.496 -3.422,-5.437 -3.261,-7.894"
         style="fill:#ffffff;fill-opacity:1;fill-rule:nonzero;stroke:none"
         id="path124" /><path
         d="m 421.918,867.953 c -0.273,-7.137 -0.156,-12.621 2.898,-16.035 1.946,5.781 2.039,8.395 0.485,11.891 -0.559,1.539 -1.942,4.222 -3.383,4.144"
         style="fill:#ffffff;fill-opacity:1;fill-rule:nonzero;stroke:none"
         id="path126" /></g></g></svg>
